<?xml version="1.0" encoding="UTF-8" standalone="no"?>
<svg
   viewBox="0 0 448 512"
   version="1.1"
   id="svg4"
   sodipodi:docname="calculator.svg"
   inkscape:version="1.1 (c4e8f9e, 2021-05-24)"
   xmlns:inkscape="http://www.inkscape.org/namespaces/inkscape"
   xmlns:sodipodi="http://sodipodi.sourceforge.net/DTD/sodipodi-0.dtd"
   xmlns="http://www.w3.org/2000/svg"
   xmlns:svg="http://www.w3.org/2000/svg"
   xmlns:rdf="http://www.w3.org/1999/02/22-rdf-syntax-ns#"
   xmlns:cc="http://creativecommons.org/ns#"
   xmlns:dc="http://purl.org/dc/elements/1.1/">
  <metadata
     id="metadata10">
    <rdf:RDF>
      <cc:Work
         rdf:about="">
        <dc:format>image/svg+xml</dc:format>
        <dc:type
           rdf:resource="http://purl.org/dc/dcmitype/StillImage" />
      </cc:Work>
    </rdf:RDF>
  </metadata>
  <defs
     id="defs8" />
  <sodipodi:namedview
     pagecolor="#ffffff"
     bordercolor="#666666"
     borderopacity="1"
     objecttolerance="10"
     gridtolerance="10"
     guidetolerance="10"
     inkscape:pageopacity="0"
     inkscape:pageshadow="2"
     inkscape:window-width="1427"
     inkscape:window-height="503"
     id="namedview6"
     showgrid="false"
     inkscape:zoom="0.4609375"
     inkscape:cx="223.45763"
     inkscape:cy="254.91525"
     inkscape:window-x="0"
     inkscape:window-y="51"
     inkscape:window-maximized="0"
     inkscape:current-layer="svg4"
     inkscape:pagecheckerboard="0" />
  <path
     d="M 400,50 H 48 C 22.4,50 0,70.2125 0,93.3125 v 375.375 C 0,491.7875 22.4,512 48,512 h 352 c 25.6,0 48,-20.2125 48,-43.3125 V 93.3125 C 448,70.2125 425.6,50 400,50 Z M 128,442.7 c 0,5.775 -6.4,11.55 -12.8,11.55 H 76.8 C 70.4,454.25 64,448.475 64,442.7 v -34.65 c 0,-5.775 6.4,-11.55 12.8,-11.55 h 38.4 c 6.4,0 12.8,5.775 12.8,11.55 z m 0,-115.5 c 0,5.775 -6.4,11.55 -12.8,11.55 H 76.8 C 70.4,338.75 64,332.975 64,327.2 V 292.55 C 64,286.775 70.4,281 76.8,281 h 38.4 c 6.4,0 12.8,5.775 12.8,11.55 z m 128,115.5 c 0,5.775 -6.4,11.55 -12.8,11.55 h -38.4 c -6.4,0 -12.8,-5.775 -12.8,-11.55 v -34.65 c 0,-5.775 6.4,-11.55 12.8,-11.55 h 38.4 c 6.4,0 12.8,5.775 12.8,11.55 z m 0,-115.5 c 0,5.775 -6.4,11.55 -12.8,11.55 h -38.4 c -6.4,0 -12.8,-5.775 -12.8,-11.55 v -34.65 c 0,-5.775 6.4,-11.55 12.8,-11.55 h 38.4 c 6.4,0 12.8,5.775 12.8,11.55 z m 128,115.5 c 0,5.775 -6.4,11.55 -12.8,11.55 h -38.4 c -6.4,0 -12.8,-5.775 -12.8,-11.55 V 292.55 c 0,-5.775 6.4,-11.55 12.8,-11.55 h 38.4 c 6.4,0 12.8,5.775 12.8,11.55 z m 0,-231 c 0,5.775 -6.4,11.55 -12.8,11.55 H 76.8 C 70.4,223.25 64,217.475 64,211.7 v -92.4 c 0,-5.775 6.4,-11.55 12.8,-11.55 h 294.4 c 6.4,0 12.8,5.775 12.8,11.55 z"
     id="path2"
     style="fill:#ffffff;stroke-width:0.949918" />
</svg>
