<?xml version="1.0" encoding="UTF-8" standalone="no"?>
<svg
   viewBox="0 0 64 64"
   version="1.1"
   id="svg4"
   sodipodi:docname="calculator-color.svg"
   inkscape:version="1.1.1 (3bf5ae0d25, 2021-09-20, custom)"
   width="64"
   height="64"
   xmlns:inkscape="http://www.inkscape.org/namespaces/inkscape"
   xmlns:sodipodi="http://sodipodi.sourceforge.net/DTD/sodipodi-0.dtd"
   xmlns="http://www.w3.org/2000/svg"
   xmlns:svg="http://www.w3.org/2000/svg"
   xmlns:rdf="http://www.w3.org/1999/02/22-rdf-syntax-ns#"
   xmlns:cc="http://creativecommons.org/ns#"
   xmlns:dc="http://purl.org/dc/elements/1.1/">
  <metadata
     id="metadata10">
    <rdf:RDF>
      <cc:Work
         rdf:about="">
        <dc:format>image/svg+xml</dc:format>
        <dc:type
           rdf:resource="http://purl.org/dc/dcmitype/StillImage" />
      </cc:Work>
    </rdf:RDF>
  </metadata>
  <defs
     id="defs8" />
  <sodipodi:namedview
     pagecolor="#ffffff"
     bordercolor="#666666"
     borderopacity="1"
     objecttolerance="10"
     gridtolerance="10"
     guidetolerance="10"
     inkscape:pageopacity="0"
     inkscape:pageshadow="2"
     inkscape:window-width="1427"
     inkscape:window-height="503"
     id="namedview6"
     showgrid="false"
     inkscape:zoom="1.84375"
     inkscape:cx="13.559322"
     inkscape:cy="46.101695"
     inkscape:window-x="0"
     inkscape:window-y="51"
     inkscape:window-maximized="0"
     inkscape:current-layer="svg4"
     inkscape:pagecheckerboard="0" />
  <path
     d="M 52.202861,5.483745 H 11.79714 c -2.9385984,0 -5.5098715,2.320172 -5.5098715,4.971798 v 43.088914 c 0,2.651626 2.5712731,4.971798 5.5098715,4.971798 h 40.405721 c 2.938598,0 5.509871,-2.320172 5.509871,-4.971798 V 10.455543 c 0,-2.651626 -2.571273,-4.971798 -5.509871,-4.971798 z M 20.980258,50.561378 c 0,0.662907 -0.734649,1.325813 -1.469299,1.325813 h -4.407896 c -0.73465,0 -1.469299,-0.662906 -1.469299,-1.325813 V 46.58394 c 0,-0.662906 0.734649,-1.325812 1.469299,-1.325812 h 4.407896 c 0.73465,0 1.469299,0.662906 1.469299,1.325812 z m 0,-13.258127 c 0,0.662906 -0.734649,1.325813 -1.469299,1.325813 h -4.407896 c -0.73465,0 -1.469299,-0.662907 -1.469299,-1.325813 V 33.325813 C 13.633764,32.662906 14.368413,32 15.103063,32 h 4.407896 c 0.73465,0 1.469299,0.662906 1.469299,1.325813 z m 14.69299,13.258127 c 0,0.662907 -0.73465,1.325813 -1.469299,1.325813 h -4.407897 c -0.73465,0 -1.469299,-0.662906 -1.469299,-1.325813 V 46.58394 c 0,-0.662906 0.734649,-1.325812 1.469299,-1.325812 h 4.407897 c 0.734649,0 1.469299,0.662906 1.469299,1.325812 z m 0,-13.258127 c 0,0.662906 -0.73465,1.325813 -1.469299,1.325813 h -4.407897 c -0.73465,0 -1.469299,-0.662907 -1.469299,-1.325813 V 33.325813 C 28.326753,32.662906 29.061402,32 29.796052,32 h 4.407897 c 0.734649,0 1.469299,0.662906 1.469299,1.325813 z m 14.69299,13.258127 c 0,0.662907 -0.73465,1.325813 -1.469299,1.325813 h -4.407897 c -0.73465,0 -1.469299,-0.662906 -1.469299,-1.325813 V 33.325813 C 43.019743,32.662906 43.754392,32 44.489042,32 h 4.407897 c 0.734649,0 1.469299,0.662906 1.469299,1.325813 z m 0,-26.516254 c 0,0.662906 -0.73465,1.325812 -1.469299,1.325812 H 15.103063 c -0.73465,0 -1.469299,-0.662906 -1.469299,-1.325812 V 13.438621 c 0,-0.662906 0.734649,-1.325812 1.469299,-1.325812 h 33.793876 c 0.734649,0 1.469299,0.662906 1.469299,1.325812 z"
     id="path2"
     style="fill:#29b647;stroke-width:0.2;stroke:none;stroke-opacity:1;stroke-miterlimit:4;stroke-dasharray:none;fill-opacity:1" />
</svg>
