<?xml version="1.0" encoding="UTF-8" standalone="no"?>
<svg
   width="64"
   height="64"
   viewBox="0 0 64 64"
   fill="none"
   version="1.1"
   id="svg25"
   sodipodi:docname="clipboard-color.svg"
   inkscape:version="1.1.1 (3bf5ae0d25, 2021-09-20, custom)"
   xmlns:inkscape="http://www.inkscape.org/namespaces/inkscape"
   xmlns:sodipodi="http://sodipodi.sourceforge.net/DTD/sodipodi-0.dtd"
   xmlns="http://www.w3.org/2000/svg"
   xmlns:svg="http://www.w3.org/2000/svg">
  <sodipodi:namedview
     id="namedview27"
     pagecolor="#ffffff"
     bordercolor="#666666"
     borderopacity="1.0"
     inkscape:pageshadow="2"
     inkscape:pageopacity="0.0"
     inkscape:pagecheckerboard="0"
     showgrid="false"
     inkscape:zoom="3.3244573"
     inkscape:cx="38.352124"
     inkscape:cy="31.132901"
     inkscape:window-width="1920"
     inkscape:window-height="1006"
     inkscape:window-x="0"
     inkscape:window-y="0"
     inkscape:window-maximized="1"
     inkscape:current-layer="svg25" />
  <g
     id="g847"
     transform="translate(0,3.2318042)"
     style="fill:#38a3a5;fill-opacity:1;stroke:none;stroke-width:0.2;stroke-miterlimit:4;stroke-dasharray:none;stroke-opacity:1">
    <path
       id="rect7610"
       style="fill:#38a3a5;fill-opacity:1;fill-rule:evenodd;stroke:none;stroke-width:0.2;stroke-miterlimit:4;stroke-dasharray:none;stroke-opacity:1"
       d="M 11.767193,37.096149 2.9627708,41.14972 c -2.15439282,0.921388 -2.15439282,2.487789 0,3.501419 L 28.253383,56.261367 c 2.060738,0.921387 5.526223,0.921387 7.493268,0 L 61.037264,44.651139 c 2.154346,-0.921474 2.154346,-2.487875 0,-3.501419 l -8.804423,-4.053571 -16.392774,7.55499 c -2.060738,1.013543 -5.525668,1.013542 -7.6801,0 z" />
    <path
       id="rect7556"
       style="fill:#38a3a5;fill-opacity:1;fill-rule:evenodd;stroke:none;stroke-width:0.2;stroke-miterlimit:4;stroke-dasharray:none;stroke-opacity:1"
       d="m 11.486915,22.905315 -8.6175919,3.961823 c -2.15439287,0.921473 -2.15439287,2.487874 0,3.501418 L 28.159936,41.978784 c 2.060738,1.013543 5.525754,1.013543 7.6801,0 L 61.130648,30.368556 c 2.154432,-0.921388 2.154432,-2.487789 0,-3.501418 l -8.617592,-3.961823 -16.67302,7.648404 c -2.060738,1.013544 -5.525669,1.013544 -7.6801,0 z" />
    <path
       id="rect7381"
       style="fill:#38a3a5;fill-opacity:1;fill-rule:evenodd;stroke:none;stroke-width:0.2;stroke-miterlimit:4;stroke-dasharray:none;stroke-opacity:1"
       d="m 32.035017,0.58398438 c -1.393324,0 -2.797865,0.25220671 -3.875081,0.75900192 L 2.8693231,12.953214 c -2.15439287,0.921388 -2.15439287,2.487789 0,3.501418 L 28.159936,28.06486 c 2.060738,0.921473 5.525754,0.921473 7.6801,0 L 61.130648,16.454632 c 2.154432,-0.921473 2.154432,-2.487874 0,-3.501418 L 35.840036,1.3429863 C 34.809667,0.83619109 33.42834,0.58398438 32.035017,0.58398438 Z" />
  </g>
  <defs
     id="defs23">
    <linearGradient
       id="linearGradient4079"
       inkscape:swatch="solid">
      <stop
         style="stop-color:#ffffff;stop-opacity:1;"
         offset="0"
         id="stop4077" />
    </linearGradient>
    <linearGradient
       id="linearGradient1999"
       x1="35.9743"
       y1="43.9547"
       x2="35.9743"
       y2="-0.46086201"
       gradientUnits="userSpaceOnUse">
      <stop
         stop-color="#C2EBFA"
         id="stop1995" />
      <stop
         offset="1"
         stop-color="#26A8DE"
         id="stop1997" />
    </linearGradient>
    <linearGradient
       id="linearGradient1835"
       x1="35.9743"
       y1="43.9547"
       x2="35.9743"
       y2="-0.46086201"
       gradientUnits="userSpaceOnUse">
      <stop
         stop-color="#C2EBFA"
         id="stop1831" />
      <stop
         offset="1"
         stop-color="#26A8DE"
         id="stop1833" />
    </linearGradient>
    <linearGradient
       id="linearGradient1731"
       x1="35.9743"
       y1="43.9547"
       x2="35.9743"
       y2="-0.46086201"
       gradientUnits="userSpaceOnUse">
      <stop
         stop-color="#C2EBFA"
         id="stop1727" />
      <stop
         offset="1"
         stop-color="#26A8DE"
         id="stop1729" />
    </linearGradient>
    <linearGradient
       id="linearGradient1358"
       inkscape:swatch="solid">
      <stop
         style="stop-color:#ffffff;stop-opacity:1;"
         offset="0"
         id="stop1356" />
    </linearGradient>
    <linearGradient
       id="paint0_linear"
       x1="35.9743"
       y1="78.659401"
       x2="69.760162"
       y2="77.786789"
       gradientUnits="userSpaceOnUse">
      <stop
         stop-color="#FCC2B1"
         id="stop8" />
    </linearGradient>
    <linearGradient
       id="paint1_linear"
       x1="35.9743"
       y1="57.171299"
       x2="35.9743"
       y2="24.531601"
       gradientUnits="userSpaceOnUse"
       inkscape:swatch="gradient">
      <stop
         stop-color="#DEEDC9"
         id="stop13"
         style="stop-color:#fbffff;stop-opacity:1" />
      <stop
         offset="0.6606"
         stop-color="#8BBA25"
         id="stop15"
         style="stop-color:#fffffd;stop-opacity:1" />
    </linearGradient>
    <linearGradient
       id="paint2_linear"
       x1="35.9743"
       y1="43.9547"
       x2="35.9743"
       y2="-0.46086201"
       gradientUnits="userSpaceOnUse"
       inkscape:swatch="gradient">
      <stop
         stop-color="#C2EBFA"
         id="stop18"
         style="stop-color:#ffffff;stop-opacity:0.99890828" />
      <stop
         offset="1"
         stop-color="#26A8DE"
         id="stop20"
         style="stop-color:#ffffff;stop-opacity:1" />
    </linearGradient>
  </defs>
</svg>
