<?xml version="1.0" encoding="UTF-8" standalone="no"?>
<svg
   viewBox="0 0 448 512"
   version="1.1"
   id="svg4"
   sodipodi:docname="discord.svg"
   inkscape:version="1.1 (c4e8f9e, 2021-05-24)"
   xmlns:inkscape="http://www.inkscape.org/namespaces/inkscape"
   xmlns:sodipodi="http://sodipodi.sourceforge.net/DTD/sodipodi-0.dtd"
   xmlns="http://www.w3.org/2000/svg"
   xmlns:svg="http://www.w3.org/2000/svg"
   xmlns:rdf="http://www.w3.org/1999/02/22-rdf-syntax-ns#"
   xmlns:cc="http://creativecommons.org/ns#"
   xmlns:dc="http://purl.org/dc/elements/1.1/">
  <metadata
     id="metadata10">
    <rdf:RDF>
      <cc:Work
         rdf:about="">
        <dc:format>image/svg+xml</dc:format>
        <dc:type
           rdf:resource="http://purl.org/dc/dcmitype/StillImage" />
      </cc:Work>
    </rdf:RDF>
  </metadata>
  <defs
     id="defs8" />
  <sodipodi:namedview
     pagecolor="#ffffff"
     bordercolor="#666666"
     borderopacity="1"
     objecttolerance="10"
     gridtolerance="10"
     guidetolerance="10"
     inkscape:pageopacity="0"
     inkscape:pageshadow="2"
     inkscape:window-width="1427"
     inkscape:window-height="503"
     id="namedview6"
     showgrid="false"
     inkscape:zoom="0.4609375"
     inkscape:cx="223.45763"
     inkscape:cy="254.91525"
     inkscape:window-x="0"
     inkscape:window-y="51"
     inkscape:window-maximized="0"
     inkscape:current-layer="svg4"
     inkscape:pagecheckerboard="0" />
  <path
     d="m 289.04457,269.45 c 0,14.091 -10.23428,25.641 -23.19771,25.641 -12.736,0 -23.19772,-11.55 -23.19772,-25.641 0,-14.091 10.23429,-25.641 23.19772,-25.641 12.96343,0 23.19771,11.55 23.19771,25.641 z M 182.83543,243.809 c -12.96343,0 -23.19772,11.55 -23.19772,25.641 0,14.091 10.46172,25.641 23.19772,25.641 12.96343,0 23.19771,-11.55 23.19771,-25.641 0.22743,-14.091 -10.23428,-25.641 -23.19771,-25.641 z M 423,97.586 V 512 C 365.70399,460.57182 384.02798,477.59544 317.47314,414.749 l 12.05372,42.735 H 71.622857 C 45.923429,457.484 25,436.232 25,409.898 V 97.586 C 25,71.252 45.923429,50 71.622857,50 H 376.37714 C 402.07657,50 423,71.252 423,97.586 Z m -64.81714,218.988 c 0,-74.382 -32.74972,-134.673 -32.74972,-134.673 -32.74971,-24.948 -63.90743,-24.255 -63.90743,-24.255 l -3.184,3.696 c 38.66286,12.012 56.62972,29.337 56.62972,29.337 -54.02406,-30.07421 -117.48463,-30.07963 -169.88914,-6.699 -8.41486,3.927 -13.41829,6.699 -13.41829,6.699 0,0 18.87657,-18.249 59.81371,-30.261 l -2.27428,-2.772 c 0,0 -31.15772,-0.693 -63.90743,24.255 0,0 -32.749714,60.291 -32.749714,134.673 0,0 19.104004,33.495 69.365714,35.112 0,0 8.41486,-10.395 15.23771,-19.173 -28.88342,-8.778 -39.8,-27.258 -39.8,-27.258 3.34569,2.37858 8.86261,5.46189 9.32458,5.775 38.38745,21.83491 92.91523,28.9887 141.91542,8.085 7.96,-3.003 16.82972,-7.392 26.15429,-13.629 0,0 -11.37143,18.942 -41.16457,27.489 6.82286,8.778 15.01028,18.711 15.01028,18.711 50.26172,-1.617 69.59315,-35.112 69.59315,-35.112 z"
     id="path2"
     style="fill:#ffffff;stroke-width:0.895341" />
</svg>
