<?xml version="1.0" encoding="UTF-8" standalone="no"?>
<svg
   viewBox="0 0 64 64"
   version="1.1"
   id="svg4"
   sodipodi:docname="discord-color.svg"
   inkscape:version="1.1.1 (3bf5ae0d25, 2021-09-20, custom)"
   width="64"
   height="64"
   xmlns:inkscape="http://www.inkscape.org/namespaces/inkscape"
   xmlns:sodipodi="http://sodipodi.sourceforge.net/DTD/sodipodi-0.dtd"
   xmlns:xlink="http://www.w3.org/1999/xlink"
   xmlns="http://www.w3.org/2000/svg"
   xmlns:svg="http://www.w3.org/2000/svg"
   xmlns:rdf="http://www.w3.org/1999/02/22-rdf-syntax-ns#"
   xmlns:cc="http://creativecommons.org/ns#"
   xmlns:dc="http://purl.org/dc/elements/1.1/">
  <metadata
     id="metadata10">
    <rdf:RDF>
      <cc:Work
         rdf:about="">
        <dc:format>image/svg+xml</dc:format>
        <dc:type
           rdf:resource="http://purl.org/dc/dcmitype/StillImage" />
      </cc:Work>
    </rdf:RDF>
  </metadata>
  <defs
     id="defs8">
    <linearGradient
       inkscape:collect="always"
       id="linearGradient867">
      <stop
         style="stop-color:#7289da;stop-opacity:1;"
         offset="0"
         id="stop863" />
      <stop
         style="stop-color:#7289da;stop-opacity:0.94117647"
         offset="1"
         id="stop865" />
    </linearGradient>
    <linearGradient
       inkscape:collect="always"
       xlink:href="#linearGradient867"
       id="linearGradient869"
       x1="7.176514"
       y1="32.062067"
       x2="56.823486"
       y2="32.062067"
       gradientUnits="userSpaceOnUse" />
  </defs>
  <sodipodi:namedview
     pagecolor="#ffffff"
     bordercolor="#666666"
     borderopacity="1"
     objecttolerance="10"
     gridtolerance="10"
     guidetolerance="10"
     inkscape:pageopacity="0"
     inkscape:pageshadow="2"
     inkscape:window-width="1427"
     inkscape:window-height="503"
     id="namedview6"
     showgrid="false"
     inkscape:zoom="3.6875"
     inkscape:cx="30.101695"
     inkscape:cy="18.440678"
     inkscape:window-x="1974"
     inkscape:window-y="138"
     inkscape:window-maximized="0"
     inkscape:current-layer="svg4"
     inkscape:pagecheckerboard="0" />
  <path
     d="m 40.081047,30.565044 c 0,1.750646 -1.271493,3.185602 -2.882051,3.185602 -1.582303,0 -2.882052,-1.434956 -2.882052,-3.185602 0,-1.750647 1.271493,-3.185602 2.882052,-3.185602 1.610558,0 2.882051,1.434955 2.882051,3.185602 z M 26.88577,27.379442 c -1.610558,0 -2.882053,1.434955 -2.882053,3.185602 0,1.750646 1.29975,3.185602 2.882053,3.185602 1.610559,0 2.882052,-1.434956 2.882052,-3.185602 0.02826,-1.750647 -1.271493,-3.185602 -2.882052,-3.185602 z M 56.723486,9.2128978 V 60.699122 c -7.118378,-6.389366 -4.84183,-4.274375 -13.110512,-12.08233 l 1.497538,5.309337 H 13.068874 c -3.192862,0 -5.79236,-2.640318 -5.79236,-5.912019 V 9.2128978 c 0,-3.2717004 2.599498,-5.9120196 5.79236,-5.9120196 h 37.862252 c 3.192862,0 5.79236,2.6403192 5.79236,5.9120196 z M 48.670693,36.419665 c 0,-9.241118 -4.06878,-16.731589 -4.06878,-16.731589 -4.068778,-3.099505 -7.93977,-3.013407 -7.93977,-3.013407 l -0.395577,0.459186 c 4.803421,1.492354 7.035599,3.644789 7.035599,3.644789 -6.711875,-3.736379 -14.596129,-3.737052 -21.106793,-0.832276 -1.045451,0.487886 -1.66707,0.832276 -1.66707,0.832276 0,0 2.345199,-2.267231 7.431173,-3.759586 l -0.282553,-0.344389 c 0,0 -3.870992,-0.0861 -7.939771,3.013407 0,0 -4.068779,7.490471 -4.068779,16.731589 0,0 2.373455,4.161373 8.6179,4.362266 0,0 1.045451,-1.29146 1.893112,-2.382027 -3.588436,-1.090566 -4.944697,-3.386496 -4.944697,-3.386496 0.415664,0.295511 1.101078,0.678577 1.158473,0.717478 4.769204,2.712739 11.54366,3.601516 17.631377,1.004469 0.988939,-0.373088 2.0909,-0.918372 3.249372,-1.693248 0,0 -1.41277,2.353328 -5.114229,3.415196 0.847663,1.090566 1.864857,2.324628 1.864857,2.324628 6.244446,-0.200893 8.646156,-4.362266 8.646156,-4.362266 z"
     id="path2"
     style="fill:url(#linearGradient869);stroke-width:0.2;stroke:none;stroke-opacity:1;stroke-miterlimit:4;stroke-dasharray:none;fill-opacity:1" />
</svg>
