<?xml version="1.0" encoding="UTF-8" standalone="no"?>
<svg
   viewBox="0 0 64 64"
   version="1.1"
   id="svg4"
   sodipodi:docname="envelope-color.svg"
   inkscape:version="1.1.1 (3bf5ae0d25, 2021-09-20, custom)"
   width="64"
   height="64"
   xmlns:inkscape="http://www.inkscape.org/namespaces/inkscape"
   xmlns:sodipodi="http://sodipodi.sourceforge.net/DTD/sodipodi-0.dtd"
   xmlns="http://www.w3.org/2000/svg"
   xmlns:svg="http://www.w3.org/2000/svg"
   xmlns:rdf="http://www.w3.org/1999/02/22-rdf-syntax-ns#"
   xmlns:cc="http://creativecommons.org/ns#"
   xmlns:dc="http://purl.org/dc/elements/1.1/">
  <metadata
     id="metadata10">
    <rdf:RDF>
      <cc:Work
         rdf:about="">
        <dc:format>image/svg+xml</dc:format>
        <dc:type
           rdf:resource="http://purl.org/dc/dcmitype/StillImage" />
      </cc:Work>
    </rdf:RDF>
  </metadata>
  <defs
     id="defs8" />
  <sodipodi:namedview
     pagecolor="#ffffff"
     bordercolor="#666666"
     borderopacity="1"
     objecttolerance="10"
     gridtolerance="10"
     guidetolerance="10"
     inkscape:pageopacity="0"
     inkscape:pageshadow="2"
     inkscape:window-width="1427"
     inkscape:window-height="503"
     id="namedview6"
     showgrid="false"
     inkscape:zoom="3.6875"
     inkscape:cx="20.338983"
     inkscape:cy="39.864407"
     inkscape:window-x="0"
     inkscape:window-y="79"
     inkscape:window-maximized="0"
     inkscape:current-layer="svg4"
     inkscape:pagecheckerboard="0" />
  <path
     d="m 59.879355,24.619836 c 0.441451,-0.350898 1.097969,-0.02264 1.097969,0.532005 v 23.147904 c 0,2.9996 -2.433643,5.43325 -5.433248,5.43325 H 8.4559242 c -2.9996058,0 -5.4332482,-2.43365 -5.4332482,-5.43325 V 25.163161 c 0,-0.565964 0.6451982,-0.882903 1.0979689,-0.532006 2.5355159,1.969552 5.8973381,4.471111 17.4429911,12.858687 2.388365,1.743168 6.418024,5.41061 10.436364,5.387972 4.040978,0.03396 8.149872,-3.71272 10.447683,-5.387972 C 53.993336,29.102266 57.343839,26.589388 59.879355,24.619836 Z M 32,39.244329 c 2.62607,0.04528 6.406705,-3.305226 8.308342,-4.686177 15.020667,-10.900454 16.163913,-11.851272 19.627609,-14.567897 0.656518,-0.509367 1.041373,-1.301715 1.041373,-2.139341 v -2.150661 c 0,-2.999606 -2.433643,-5.433248 -5.433248,-5.433248 H 8.4559242 c -2.9996058,0 -5.4332482,2.433642 -5.4332482,5.433248 v 2.150661 c 0,0.837626 0.3848551,1.618655 1.0413726,2.139341 3.4636957,2.705305 4.6069417,3.667443 19.6276094,14.567897 1.901637,1.380951 5.682272,4.731454 8.308342,4.686177 z"
     id="path2"
     style="fill:#f07850;stroke-width:0.2;stroke:none;stroke-opacity:1;stroke-miterlimit:4;stroke-dasharray:none;fill-opacity:1" />
</svg>
