<?xml version="1.0" encoding="UTF-8" standalone="no"?>
<svg
   viewBox="0 0 496 512"
   version="1.1"
   id="svg4"
   sodipodi:docname="globe-africa.svg"
   inkscape:version="1.1 (c4e8f9e, 2021-05-24)"
   xmlns:inkscape="http://www.inkscape.org/namespaces/inkscape"
   xmlns:sodipodi="http://sodipodi.sourceforge.net/DTD/sodipodi-0.dtd"
   xmlns="http://www.w3.org/2000/svg"
   xmlns:svg="http://www.w3.org/2000/svg"
   xmlns:rdf="http://www.w3.org/1999/02/22-rdf-syntax-ns#"
   xmlns:cc="http://creativecommons.org/ns#"
   xmlns:dc="http://purl.org/dc/elements/1.1/">
  <metadata
     id="metadata10">
    <rdf:RDF>
      <cc:Work
         rdf:about="">
        <dc:format>image/svg+xml</dc:format>
        <dc:type
           rdf:resource="http://purl.org/dc/dcmitype/StillImage" />
      </cc:Work>
    </rdf:RDF>
  </metadata>
  <defs
     id="defs8" />
  <sodipodi:namedview
     pagecolor="#ffffff"
     bordercolor="#666666"
     borderopacity="1"
     objecttolerance="10"
     gridtolerance="10"
     guidetolerance="10"
     inkscape:pageopacity="0"
     inkscape:pageshadow="2"
     inkscape:window-width="1427"
     inkscape:window-height="503"
     id="namedview6"
     showgrid="false"
     inkscape:zoom="0.4609375"
     inkscape:cx="247.32203"
     inkscape:cy="254.91525"
     inkscape:window-x="0"
     inkscape:window-y="51"
     inkscape:window-maximized="0"
     inkscape:current-layer="svg4"
     inkscape:pagecheckerboard="0" />
  <path
     d="M 248,50 C 127.04665,50 29,148.04665 29,269 29,389.95335 127.04665,488 248,488 368.95335,488 467,389.95335 467,269 467,148.04665 368.95335,50 248,50 Z m 141.29032,190.3004 v 6.11964 c 0,5.18359 -2.93177,9.92565 -7.56786,12.23927 l -13.59036,6.7996 a 13.674254,13.674254 0 0 1 -13.714,-0.85657 l -16.0806,-10.7204 a 13.705161,13.705161 0 0 0 -11.92137,-1.59835 l -2.34012,0.7771 c -8.56573,2.85229 -12.06266,13.06052 -7.05569,20.5754 l 11.69178,17.53766 c 2.53439,3.80601 6.80842,6.09315 11.3827,6.09315 h 7.24996 c 7.55903,0 13.6875,6.12846 13.6875,13.6875 v 10.01395 c 0,2.95826 -0.96254,5.84588 -2.7375,8.2125 l -16.54863,22.05895 c -1.25395,1.67782 -2.11053,3.62056 -2.49907,5.6781 l -3.79718,20.16037 c -0.5475,2.90528 -2.02222,5.55447 -4.20339,7.55903 a 140.94416,140.94416 0 0 0 -22.07661,25.75016 l -11.50633,17.26391 a 24.510339,24.510339 0 0 1 -20.38996,10.91468 c -9.28101,0 -17.76726,-5.2454 -21.91766,-13.54621 A 69.675556,69.675556 0 0 1 248,393.85649 v -26.3948 c 0,-7.55903 -6.12847,-13.6875 -13.6875,-13.6875 h -22.85371 c -12.7956,0 -25.06137,-5.08645 -34.11278,-14.12903 a 48.267423,48.267423 0 0 1 -14.12903,-34.11278 v -12.41589 c 0,-15.17988 7.15282,-29.47669 19.29496,-38.58992 l 24.35491,-18.2706 a 48.270956,48.270956 0 0 1 28.94686,-9.6519 h 0.78593 c 7.48838,0 14.87963,1.73964 21.57326,5.09528 l 12.99871,6.49936 c 3.24968,1.62484 7.0027,1.88976 10.44666,0.74177 l 41.77778,-13.92592 c 5.5898,-1.86327 9.36048,-7.09101 9.36048,-12.98105 0,-7.55903 -6.12847,-13.6875 -13.6875,-13.6875 h -8.91012 c -3.62939,0 -7.10867,-1.4394 -9.67839,-4.00911 l -6.1108,-6.11081 a 13.681319,13.681319 0 0 0 -9.67839,-4.00911 h -79.51996 c -7.55903,0 -13.6875,-6.12847 -13.6875,-13.6875 v -3.88549 c 0,-6.27859 4.27403,-11.75359 10.36718,-13.28129 l 12.76028,-3.18786 c 3.30266,-0.83008 6.18145,-2.8523 8.07121,-5.68694 l 7.13516,-10.69391 c 2.5344,-3.80601 6.80843,-6.09314 11.3827,-6.09314 h 21.379 c 7.55903,0 13.6875,-6.12847 13.6875,-13.6875 V 94.850847 C 346.22327,106.1894 402.41266,158.6346 419.2527,226.6129 h -16.27488 c -7.55903,0 -13.6875,6.12847 -13.6875,13.6875 z"
     id="path2"
     style="fill:#ffffff;stroke-width:0.883064" />
</svg>
