<?xml version="1.0" encoding="UTF-8" standalone="no"?>
<svg
   viewBox="0 0 48 48"
   width="48"
   height="48"
   version="1.1"
   id="svg12"
   xmlns="http://www.w3.org/2000/svg"
   xmlns:svg="http://www.w3.org/2000/svg">
  <defs
     id="defs16" />
  <g
     transform="translate(27.009001,-39.238998)"
     id="g10">
    <g
       id="path1448"
       clip-path="none">
      <path
         id="path1288"
         style="color:#000000;fill:#ffffff;stroke-width:0.266709;-inkscape-stroke:none"
         d="M 24,5.9121094 A 19.070251,18.088104 0 0 0 4.9296875,24 19.070251,18.088104 0 0 0 24,42.087891 19.070251,18.088104 0 0 0 43.070312,24 19.070251,18.088104 0 0 0 24,5.9121094 Z m 0.238281,6.8027346 c 3.220512,0 5.916956,1.11709 7.980469,2.945312 l -3.388672,3.115235 c -0.858803,-0.767402 -2.361294,-1.669922 -4.591797,-1.669922 -3.948109,0 -7.167969,3.103097 -7.167969,6.90625 10e-7,3.803153 3.21986,6.90625 7.167969,6.90625 4.568356,0 6.250424,-2.989924 6.560547,-4.761719 h -6.572266 v -0.01172 -4.199219 h 11.164063 c 0.166989,0.710976 0.298828,1.377772 0.298828,2.314454 0,6.443917 -4.568819,11.02539 -11.451172,11.02539 -6.584157,0 -11.927734,-5.055659 -11.927734,-11.285156 0,-6.229497 5.343577,-11.285156 11.927734,-11.285155 z"
         transform="translate(-27.009001,39.238998)" />
      <path
         style="color:#000000;fill:#000000;fill-opacity:0.356627;-inkscape-stroke:none"
         d="m -3.0097656,45.017578 c -10.6005564,0 -19.2031254,8.154946 -19.2031254,18.220703 0,10.065758 8.602568,18.222657 19.2031254,18.222656 10.600557,10e-7 19.2050786,-8.156898 19.2050776,-18.222656 0,-10.065757 -8.604521,-18.220703 -19.2050776,-18.220703 z m 0,0.267578 c 10.4638399,0 18.9374996,8.039335 18.9374996,17.953125 1e-6,9.913791 -8.4736593,17.955078 -18.9374996,17.955078 -10.4638404,0 -18.9355474,-8.041287 -18.9355464,-17.955078 0,-9.91379 8.471706,-17.953125 18.9355464,-17.953125 z"
         id="path1290" />
    </g>
    <g
       id="google"
       transform="matrix(1.1927821,0,0,1.128532,-17.119613,49.696614)" />
  </g>
</svg>
