<?xml version="1.0" encoding="UTF-8" standalone="no"?>
<svg
   viewBox="0 0 64 64"
   version="1.1"
   id="svg14"
   sodipodi:docname="music.svg"
   inkscape:version="1.1.1 (3bf5ae0d25, 2021-09-20, custom)"
   width="64"
   height="64"
   xmlns:inkscape="http://www.inkscape.org/namespaces/inkscape"
   xmlns:sodipodi="http://sodipodi.sourceforge.net/DTD/sodipodi-0.dtd"
   xmlns="http://www.w3.org/2000/svg"
   xmlns:svg="http://www.w3.org/2000/svg"
   xmlns:rdf="http://www.w3.org/1999/02/22-rdf-syntax-ns#"
   xmlns:cc="http://creativecommons.org/ns#"
   xmlns:dc="http://purl.org/dc/elements/1.1/">
  <metadata
     id="metadata20">
    <rdf:RDF>
      <cc:Work
         rdf:about="">
        <dc:format>image/svg+xml</dc:format>
        <dc:type
           rdf:resource="http://purl.org/dc/dcmitype/StillImage" />
      </cc:Work>
    </rdf:RDF>
  </metadata>
  <defs
     id="defs18" />
  <sodipodi:namedview
     pagecolor="#ffffff"
     bordercolor="#666666"
     borderopacity="1"
     objecttolerance="10"
     gridtolerance="10"
     guidetolerance="10"
     inkscape:pageopacity="0"
     inkscape:pageshadow="2"
     inkscape:window-width="1207"
     inkscape:window-height="503"
     id="namedview16"
     showgrid="false"
     inkscape:zoom="2.6074563"
     inkscape:cx="15.340622"
     inkscape:cy="26.462572"
     inkscape:window-x="0"
     inkscape:window-y="51"
     inkscape:window-maximized="0"
     inkscape:current-layer="svg14"
     inkscape:pagecheckerboard="0" />
  <path
     d="M 57.312841,3.8565553 19.532498,14.305779 a 3.7783884,3.5387355 0 0 0 -2.646052,3.373963 v 28.908152 a 16.412374,15.371383 0 0 0 -3.778388,-0.433492 c -6.2579563,0 -11.3351658,3.169378 -11.3351658,7.077461 0,3.908101 5.0772095,7.077479 11.3351658,7.077479 6.257955,0 11.335166,-3.169378 11.335166,-7.077479 V 27.390251 l 30.227107,-8.29391 v 20.415187 a 16.341529,15.305031 0 0 0 -3.778388,-0.4346 c -6.257956,0 -11.335165,3.169381 -11.335165,7.077474 0,3.908083 5.077209,7.077461 11.335165,7.077461 6.257956,0 11.335165,-3.168269 11.335165,-7.077461 V 7.2283076 A 3.7783884,3.5387355 0 0 0 57.312841,3.8565553 Z"
     id="path12"
     style="fill:#ffffff;stroke:#000000;stroke-width:0.2;stroke-miterlimit:4;stroke-dasharray:none;stroke-opacity:1" />
</svg>
