<?xml version="1.0" encoding="UTF-8" standalone="no"?>
<svg
   viewBox="0 0 512 512"
   version="1.1"
   id="svg14"
   sodipodi:docname="music-color.svg"
   inkscape:version="1.1 (c4e8f9e, 2021-05-24)"
   xmlns:inkscape="http://www.inkscape.org/namespaces/inkscape"
   xmlns:sodipodi="http://sodipodi.sourceforge.net/DTD/sodipodi-0.dtd"
   xmlns="http://www.w3.org/2000/svg"
   xmlns:svg="http://www.w3.org/2000/svg"
   xmlns:rdf="http://www.w3.org/1999/02/22-rdf-syntax-ns#"
   xmlns:cc="http://creativecommons.org/ns#"
   xmlns:dc="http://purl.org/dc/elements/1.1/">
  <metadata
     id="metadata20">
    <rdf:RDF>
      <cc:Work
         rdf:about="">
        <dc:format>image/svg+xml</dc:format>
        <dc:type
           rdf:resource="http://purl.org/dc/dcmitype/StillImage" />
      </cc:Work>
    </rdf:RDF>
  </metadata>
  <defs
     id="defs18" />
  <sodipodi:namedview
     pagecolor="#ffffff"
     bordercolor="#666666"
     borderopacity="1"
     objecttolerance="10"
     gridtolerance="10"
     guidetolerance="10"
     inkscape:pageopacity="0"
     inkscape:pageshadow="2"
     inkscape:window-width="1207"
     inkscape:window-height="503"
     id="namedview16"
     showgrid="false"
     inkscape:zoom="0.4609375"
     inkscape:cx="256"
     inkscape:cy="254.91525"
     inkscape:window-x="0"
     inkscape:window-y="51"
     inkscape:window-maximized="0"
     inkscape:current-layer="svg14"
     inkscape:pagecheckerboard="0" />
  <path
     d="M 470.38,51.335769 150.41,136.60318 A 32,28.876677 0 0 0 128,164.1353 v 235.89538 a 139,125.43307 0 0 0 -32,-3.53739 c -53,0 -96,25.86268 -96,57.75335 C 0,486.13732 43,512 96,512 c 53,0 96,-25.86268 96,-57.75336 V 243.3747 l 256,-67.67971 v 166.59136 a 138.4,124.89163 0 0 0 -32,-3.54642 c -53,0 -96,25.86268 -96,57.75336 0,31.89068 43,57.75335 96,57.75335 53,0 96,-25.85364 96,-57.75335 V 78.849829 a 32,28.876677 0 0 0 -41.62,-27.51406 z"
     id="path12"
     style="fill:#d473d4;stroke-width:0.949946" />
</svg>
