<?xml version="1.0" encoding="UTF-8" standalone="no"?>
<!-- Created with Inkscape (http://www.inkscape.org/) -->

<svg
   width="210mm"
   height="210mm"
   viewBox="0 0 210 210"
   version="1.1"
   id="svg5"
   inkscape:version="1.1 (c4e8f9e, 2021-05-24)"
   sodipodi:docname="dessin2.svg"
   inkscape:export-filename="/Users/paulw/Desktop/dessin2.png"
   inkscape:export-xdpi="96"
   inkscape:export-ydpi="96"
   xmlns:inkscape="http://www.inkscape.org/namespaces/inkscape"
   xmlns:sodipodi="http://sodipodi.sourceforge.net/DTD/sodipodi-0.dtd"
   xmlns="http://www.w3.org/2000/svg"
   xmlns:svg="http://www.w3.org/2000/svg">
  <sodipodi:namedview
     id="namedview7"
     pagecolor="#ffffff"
     bordercolor="#666666"
     borderopacity="1.0"
     inkscape:pageshadow="2"
     inkscape:pageopacity="0.0"
     inkscape:pagecheckerboard="0"
     inkscape:document-units="mm"
     showgrid="false"
     height="210mm"
     inkscape:zoom="0.48315492"
     inkscape:cx="408.77158"
     inkscape:cy="1228.3845"
     inkscape:window-width="1532"
     inkscape:window-height="945"
     inkscape:window-x="0"
     inkscape:window-y="25"
     inkscape:window-maximized="0"
     inkscape:current-layer="text2168" />
  <defs
     id="defs2">
    <rect
       x="53.031991"
       y="487.80659"
       width="441.74589"
       height="292.05579"
       id="rect2170" />
    <rect
       x="8.5157648"
       y="516.73688"
       width="486.26211"
       height="263.1255"
       id="rect1406" />
  </defs>
  <g
     inkscape:label="Calque 1"
     inkscape:groupmode="layer"
     id="layer1">
    <rect
       style="fill:#000000;fill-rule:evenodd;stroke-width:0.264583"
       id="rect31"
       width="209.87483"
       height="210.26205"
       x="0"
       y="-0.38722295"
       ry="36.032578" />
    <g
       id="g128"
       transform="matrix(1.0098248,0,0,0.55416046,11.240054,16.163549)">
      <rect
         style="fill:#f07850;fill-opacity:1;stroke:#ff0000;stroke-width:1.89341;stroke-miterlimit:4;stroke-dasharray:none;stroke-opacity:1"
         id="rect77-3-6"
         width="59.185589"
         height="101.23045"
         x="61.39048"
         y="3.1402314"
         ry="7.6527591" />
      <path
         d="m 113.91374,29.93671 c 0.36029,-0.334533 0.89612,-0.02158 0.89612,0.507197 v 22.06844 c 0,2.859725 -1.98625,5.179878 -4.43442,5.179878 H 71.943779 c -2.44817,0 -4.434421,-2.320153 -4.434421,-5.179878 V 30.454698 c 0,-0.53957 0.526587,-0.841731 0.896122,-0.507196 2.069397,1.877706 4.813195,4.262608 14.236342,12.259046 1.949298,1.661877 5.23816,5.158295 8.517785,5.136711 3.298101,0.03237 6.651633,-3.539584 8.527026,-5.136711 C 109.10978,34.21011 111.84434,31.814417 113.91374,29.93671 Z M 91.159607,43.879216 c 2.143304,0.04316 5.228923,-3.151092 6.780971,-4.467645 12.259332,-10.392131 13.192412,-11.29861 16.019352,-13.88855 0.53582,-0.485612 0.84993,-1.241012 0.84993,-2.039576 v -2.050368 c 0,-2.859725 -1.98625,-5.179879 -4.43442,-5.179879 H 71.943779 c -2.44817,0 -4.434421,2.320154 -4.434421,5.179879 v 2.050368 c 0,0.798564 0.314105,1.543172 0.849931,2.039576 2.826944,2.579149 3.760019,3.496419 16.019348,13.88855 1.552047,1.316553 4.637666,4.510811 6.78097,4.467645 z"
         id="path2-94"
         style="fill:#ffffff;stroke-width:0.0998475" />
    </g>
    <g
       id="g148"
       transform="matrix(1.0040087,0,0,0.52440552,11.993722,20.811666)">
      <rect
         style="fill:#29b647;fill-opacity:1;stroke:#ff0000;stroke-width:1.8777;stroke-miterlimit:4;stroke-dasharray:none;stroke-opacity:1"
         id="rect77-3-6-0"
         width="59.43922"
         height="99.131882"
         x="61.084663"
         y="107.29964"
         ry="7.4941134" />
      <path
         d="M 108.23045,115.17039 H 73.581828 c -2.519899,0 -4.724811,2.71627 -4.724811,5.82058 v 50.44497 c 0,3.10432 2.204912,5.82058 4.724811,5.82058 h 34.648622 c 2.5199,0 4.72481,-2.71626 4.72481,-5.82058 v -50.44497 c 0,-3.10431 -2.20491,-5.82058 -4.72481,-5.82058 z M 81.456514,167.9436 c 0,0.77608 -0.629975,1.55215 -1.25995,1.55215 h -3.779849 c -0.629975,0 -1.25995,-0.77607 -1.25995,-1.55215 v -4.65646 c 0,-0.77608 0.629975,-1.55215 1.25995,-1.55215 h 3.779849 c 0.629975,0 1.25995,0.77607 1.25995,1.55215 z m 0,-15.52153 c 0,0.77607 -0.629975,1.55215 -1.25995,1.55215 h -3.779849 c -0.629975,0 -1.25995,-0.77608 -1.25995,-1.55215 v -4.65646 c 0,-0.77608 0.629975,-1.55215 1.25995,-1.55215 h 3.779849 c 0.629975,0 1.25995,0.77607 1.25995,1.55215 z m 12.599497,15.52153 c 0,0.77608 -0.629974,1.55215 -1.259948,1.55215 H 89.01621 c -0.629974,0 -1.259948,-0.77607 -1.259948,-1.55215 v -4.65646 c 0,-0.77608 0.629974,-1.55215 1.259948,-1.55215 h 3.779853 c 0.629974,0 1.259948,0.77607 1.259948,1.55215 z m 0,-15.52153 c 0,0.77607 -0.629974,1.55215 -1.259948,1.55215 H 89.01621 c -0.629974,0 -1.259948,-0.77608 -1.259948,-1.55215 v -4.65646 c 0,-0.77608 0.629974,-1.55215 1.259948,-1.55215 h 3.779853 c 0.629974,0 1.259948,0.77607 1.259948,1.55215 z m 12.599499,15.52153 c 0,0.77608 -0.62997,1.55215 -1.25995,1.55215 h -3.77985 c -0.62997,0 -1.25995,-0.77607 -1.25995,-1.55215 v -20.17799 c 0,-0.77608 0.62998,-1.55215 1.25995,-1.55215 h 3.77985 c 0.62998,0 1.25995,0.77607 1.25995,1.55215 z m 0,-31.04307 c 0,0.77608 -0.62997,1.55216 -1.25995,1.55216 H 76.416715 c -0.629975,0 -1.25995,-0.77608 -1.25995,-1.55216 v -12.41722 c 0,-0.77607 0.629975,-1.55215 1.25995,-1.55215 h 28.978845 c 0.62998,0 1.25995,0.77608 1.25995,1.55215 z"
         id="path2"
         style="fill:#ffffff;stroke-width:0.109252" />
    </g>
    <g
       id="g136"
       transform="matrix(1.0040087,0,0,0.52440552,11.993722,20.811666)">
      <rect
         style="fill:#005884;fill-opacity:1;stroke:#ff0000;stroke-width:1.80876;stroke-miterlimit:4;stroke-dasharray:none;stroke-opacity:1"
         id="rect77-3-4"
         width="55.154453"
         height="99.131882"
         x="2.0295231"
         y="107.29964"
         ry="7.4941134" />
      <path
         d="m 49.840808,128.70039 v 42.84937 c 0,3.22708 -2.301658,5.84308 -5.140976,5.84308 H 13.85388 c -2.839331,0 -5.1410001,-2.616 -5.1410001,-5.84308 v -42.84937 c 0,-3.22709 2.3016691,-5.8431 5.1410001,-5.8431 h 8.568341 c 0,-4.29589 3.074962,-7.79079 6.854669,-7.79079 3.779705,0 6.854648,3.4949 6.854648,7.79079 h 8.568294 c 2.839318,0 5.140976,2.61601 5.140976,5.8431 z M 29.27689,119.93574 c -1.419666,0 -2.5705,1.30801 -2.5705,2.92155 0,1.61356 1.150834,2.92155 2.5705,2.92155 1.419667,0 2.570502,-1.30799 2.570502,-2.92155 0,-1.61354 -1.150835,-2.92155 -2.570502,-2.92155 m 10.281966,13.87735 v -2.43461 a 0.6426254,0.73038689 0 0 0 -0.642623,-0.73039 H 19.63751 a 0.6426254,0.73038689 0 0 0 -0.642625,0.73039 v 2.43461 a 0.6426254,0.73038689 0 0 0 0.642625,0.73039 h 19.278723 a 0.6426254,0.73038689 0 0 0 0.642623,-0.73039 z"
         id="path2-3"
         style="fill:#ffffff;stroke-width:0.114184" />
    </g>
    <g
       id="g132"
       transform="matrix(1.0099724,0,0,0.55379615,10.850222,16.414802)">
      <rect
         style="fill:#7289da;fill-opacity:1;stroke:#ff0000;stroke-width:1.89341;stroke-miterlimit:4;stroke-dasharray:none;stroke-opacity:1"
         id="rect77-3-6-4"
         width="59.185589"
         height="101.23045"
         x="124.5038"
         y="3.0452855"
         ry="7.6527591" />
      <path
         d="m 161.28026,40.064717 c 0,1.87108 -1.13348,3.40475 -2.56922,3.40475 -1.41057,0 -2.56924,-1.53367 -2.56924,-3.40475 0,-1.87109 1.13348,-3.40476 2.56924,-3.40476 1.43574,0 2.56922,1.53367 2.56922,3.40476 z m -11.76306,-3.40476 c -1.43574,0 -2.56923,1.53367 -2.56923,3.40476 0,1.87108 1.15868,3.40475 2.56923,3.40475 1.43575,0 2.56924,-1.53367 2.56924,-3.40475 0.0252,-1.87109 -1.13349,-3.40476 -2.56924,-3.40476 z m 26.59918,-19.4163 V 72.27189 c -6.34575,-6.82892 -4.3163,-4.56842 -11.68753,-12.91353 l 1.33501,5.67459 h -28.56387 c -2.84631,0 -5.16366,-2.82195 -5.16366,-6.31873 V 17.243657 c 0,-3.49678 2.31735,-6.31874 5.16366,-6.31874 h 33.75274 c 2.8463,0 5.16365,2.82196 5.16365,6.31874 z m -7.17874,29.07845 c 0,-9.87686 -3.62718,-17.88264 -3.62718,-17.88264 -3.62717,-3.31273 -7.07801,-3.22071 -7.07801,-3.22071 l -0.35264,0.49077 c 4.28206,1.59503 6.27197,3.89553 6.27197,3.89553 -5.98338,-3.99341 -13.01188,-3.99414 -18.81588,-0.88952 -0.93198,0.52145 -1.48613,0.88952 -1.48613,0.88952 0,0 2.09066,-2.42319 6.6246,-4.01822 l -0.25189,-0.36808 c 0,0 -3.45083,-0.092 -7.07799,3.22071 0,0 -3.62715,8.00578 -3.62715,17.88264 0,0 2.11584,4.44765 7.68251,4.66236 0,0 0.93198,-1.3803 1.68763,-2.54589 -3.19894,-1.1656 -4.40799,-3.61947 -4.40799,-3.61947 0.37055,0.31584 0.98157,0.72525 1.03273,0.76683 4.25156,2.89937 10.29071,3.84929 15.71766,1.07358 0.88162,-0.39876 1.86398,-0.98156 2.89671,-1.80974 0,0 -1.25944,2.51522 -4.55914,3.65014 0.75565,1.16559 1.66243,2.48455 1.66243,2.48455 5.56672,-0.21471 7.70776,-4.66236 7.70776,-4.66236 z"
         id="path2-9"
         style="fill:#ffffff;stroke-width:0.108578" />
    </g>
    <g
       id="g124"
       transform="matrix(1.0100459,0,0,0.55405688,11.587844,16.169116)">
      <rect
         style="fill:#584637;fill-opacity:1;stroke:#ff0000;stroke-width:1.82388;stroke-miterlimit:4;stroke-dasharray:none;stroke-opacity:1"
         id="rect77-3"
         width="54.919102"
         height="101.23045"
         x="2.5827749"
         y="3.1402314"
         ry="7.6527591" />
      <path
         d="m 29.297453,12.138085 c -11.892963,0 -21.5335825,13.082742 -21.5335825,29.22201 0,16.13927 9.6406195,29.222012 21.5335825,29.222012 11.892962,0 21.533583,-13.082742 21.533583,-29.222012 0,-16.139268 -9.640621,-29.22201 -21.533583,-29.22201 z m 13.892636,25.392514 v 0.816566 c 0,0.691666 -0.288273,1.324417 -0.744125,1.633134 l -1.336299,0.907295 A 1.3445465,1.8246082 0 0 1 39.761212,40.7733 l -1.581155,-1.430466 a 1.3475855,1.8287323 0 0 0 -1.172193,-0.213273 l -0.230095,0.10369 c -0.842241,0.380593 -1.186083,1.742717 -0.693763,2.745456 l 1.149614,2.340117 c 0.249199,0.50785 0.669453,0.813032 1.119226,0.813032 h 0.712867 c 0.743255,0 1.345848,0.817745 1.345848,1.826376 v 1.336199 c 0,0.394734 -0.09465,0.78004 -0.26917,1.095826 l -1.627175,2.943411 c -0.123298,0.223878 -0.207523,0.483106 -0.245726,0.757651 l -0.373365,2.690075 c -0.05383,0.387663 -0.19884,0.741154 -0.413306,1.008631 a 13.858597,18.806721 0 0 0 -2.170724,3.435942 l -1.13138,2.303592 a 2.4100247,3.2705086 0 0 1 -2.004882,1.456386 c -0.912572,0 -1.746999,-0.699914 -2.155094,-1.807523 a 6.8509788,9.2970768 0 0 1 -0.723286,-4.158244 v -3.52196 c 0,-1.008631 -0.602592,-1.826376 -1.345849,-1.826376 h -2.247133 c -1.258153,0 -2.464206,-0.678705 -3.354203,-1.885292 a 4.7459842,6.4405076 0 0 1 -1.389263,-4.551798 v -1.656701 c 0,-2.025508 0.703313,-3.933188 1.897213,-5.1492 l 2.394741,-2.437917 a 4.7463317,6.4409792 0 0 1 2.846254,-1.28789 h 0.07728 c 0.73631,0 1.463069,0.232127 2.121232,0.679883 l 1.278122,0.867234 c 0.319531,0.216809 0.688554,0.252158 1.027186,0.09898 l 4.10788,-1.85819 c 0.549626,-0.248622 0.920386,-0.94618 0.920386,-1.732111 0,-1.008631 -0.602594,-1.826376 -1.345849,-1.826376 h -0.876104 c -0.356866,0 -0.698973,-0.192063 -0.951646,-0.53495 l -0.600856,-0.81539 a 1.3452411,1.8255508 0 0 0 -0.951645,-0.534951 h -7.818948 c -0.743255,0 -1.345849,-0.817744 -1.345849,-1.826375 v -0.518455 c 0,-0.837777 0.420253,-1.568327 1.019373,-1.772175 L 26.014453,25.5048 c 0.32474,-0.110761 0.607803,-0.380593 0.793617,-0.75883 l 0.701578,-1.42693 c 0.249199,-0.50785 0.669451,-0.813031 1.119225,-0.813031 h 2.10213 c 0.743254,0 1.345848,-0.817744 1.345848,-1.826376 v -2.556926 c 6.878592,1.512947 12.403516,8.510912 14.059347,17.581518 H 44.53594 c -0.743259,0 -1.345848,0.817745 -1.345848,1.826376 z"
         id="path2-7"
         style="fill:#ffffff;stroke-width:0.101149" />
    </g>
    <g
       id="g144"
       transform="matrix(1.0040087,0,0,0.52440552,11.993722,20.811666)">
      <rect
         style="fill:#d473d4;fill-opacity:1;stroke:#ff0000;stroke-width:1.8777;stroke-miterlimit:4;stroke-dasharray:none;stroke-opacity:1"
         id="rect77-3-6-4-4"
         width="59.43922"
         height="99.131882"
         x="124.49081"
         y="107.2067"
         ry="7.4941134" />
      <path
         d="m 170.67905,115.30761 -25.53543,11.27279 a 2.5537814,3.8176417 0 0 0 -1.78844,3.63988 v 31.18655 a 11.092988,16.58288 0 0 0 -2.55378,-0.46766 c -4.2297,0 -7.66135,3.41917 -7.66135,7.63529 0,4.2161 3.43165,7.63528 7.66135,7.63528 4.22971,0 7.66135,-3.41918 7.66135,-7.63528 v -27.87833 l 20.43025,-8.9476 v 22.02421 a 11.045105,16.511301 0 0 0 -2.55379,-0.46885 c -4.22969,0 -7.66133,3.41917 -7.66133,7.63528 0,4.21611 3.43164,7.63529 7.66133,7.63529 4.22971,0 7.66135,-3.41798 7.66135,-7.63529 v -41.99406 a 2.5537814,3.8176417 0 0 0 -3.32151,-3.6375 z"
         id="path12"
         style="fill:#ffffff;stroke-width:0.0975743" />
    </g>
    <g
       aria-label="EASY 
MENU"
       transform="matrix(1.192968,0,0,0.75363478,-50.533138,-246.72278)"
       id="text2168"
       style="font-size:40px;line-height:1.25;white-space:pre;shape-inside:url(#rect2170);fill:#ffffff">
      <path
         d="m 54.43125,505.33315 h 18.520949 v 9.19466 h -8.482877 v 3.88803 h 8.341496 v 8.7218 h -8.341496 v 4.04566 h 8.812767 v 9.19466 H 54.43125 Z m 15.363434,30.84154 v -1.26099 h -9.42542 v -11.50646 h 8.954149 v -1.26099 h -8.954149 v -11.34884 h 9.42542 v -1.26099 H 59.14396 v 26.63827 z"
         style="font-family:Phosphate;-inkscape-font-specification:'Phosphate, Normal';stroke-width:1.24401"
         id="path11428" />
      <path
         d="m 85.996792,505.33315 h 7.540336 l 11.923152,35.04481 h -9.896687 l -1.036796,-3.15245 h -9.519674 l -1.036796,3.15245 h -9.89669 z m 5.890887,24.16884 -2.120719,-6.1473 -2.120719,6.1473 z m -10.792105,6.6727 0.895415,-2.62705 h 15.551942 l 0.895415,2.62705 h 1.319559 l -9.09553,-26.63827 h -1.79083 l -9.09553,26.63827 z m 8.671386,-25.37728 7.351827,21.48925 H 82.415133 Z"
         style="font-family:Phosphate;-inkscape-font-specification:'Phosphate, Normal';stroke-width:1.24401"
         id="path11430" />
      <path
         d="m 109.99261,535.80691 q 0.65978,0.15761 1.41382,0.2627 0.65978,0.10508 1.36668,0.21016 0.75404,0.0526 1.50807,0.0526 1.31956,0 2.54486,-0.31525 1.27243,-0.36779 2.2621,-1.1559 0.98967,-0.78812 1.5552,-1.99656 0.61265,-1.26098 0.61265,-3.04737 0,-1.5237 -0.70691,-2.88976 -0.65978,-1.36607 -1.7437,-2.62705 -1.0368,-1.26098 -2.2621,-2.41688 -1.17818,-1.15591 -2.2621,-2.31181 -1.0368,-1.20843 -1.7437,-2.36434 -0.65978,-1.20844 -0.65978,-2.46943 0,-1.89147 1.08392,-2.88974 1.08392,-1.05082 3.48741,-1.05082 0.37701,0 0.75403,0.0526 0.42414,0 0.80116,0.0526 0.37702,0.0526 0.75403,0.0526 v -1.36607 q -0.32989,0 -0.7069,-0.0526 -0.32989,-0.0526 -0.75404,-0.0526 -0.37701,-0.0526 -0.80116,-0.0526 -2.54486,0 -4.19431,1.31352 -1.64945,1.26098 -1.64945,3.99311 0,1.47115 0.65978,2.78468 0.70691,1.26098 1.7437,2.52197 1.08393,1.20843 2.2621,2.36433 1.22531,1.15591 2.26211,2.36435 1.08392,1.1559 1.7437,2.41689 0.7069,1.26098 0.7069,2.62705 0,2.52196 -1.55519,3.83548 -1.50807,1.31353 -4.19431,1.31353 -1.60232,0 -2.92188,-0.26271 -0.70691,-0.10508 -1.36669,-0.2627 z m -3.95868,-6.30492 q 1.0368,0.36778 2.16785,0.57795 0.94255,0.26271 2.12072,0.42032 1.22531,0.15763 2.45061,0.15763 2.16785,0 2.16785,-1.78639 0,-0.68304 -0.65978,-1.36607 -0.65978,-0.73557 -1.69658,-1.57623 -0.98967,-0.8932 -2.16784,-1.94402 -1.13105,-1.05082 -2.16785,-2.41688 -0.98967,-1.36607 -1.64945,-3.04738 -0.65978,-1.73384 -0.65978,-3.94056 0,-2.46943 0.80116,-4.36091 0.80116,-1.89147 2.21498,-3.15246 1.41381,-1.26098 3.29889,-1.89147 1.93221,-0.68303 4.10006,-0.68303 1.13105,0 2.2621,0.15762 1.13105,0.10508 2.02647,0.21016 1.03679,0.15763 2.02646,0.31525 v 9.82516 q -0.37701,-0.0526 -0.84829,-0.10508 -0.37701,-0.0526 -0.84828,-0.10508 -0.47127,-0.0526 -0.98967,-0.0526 -0.28277,0 -0.70691,0.0526 -0.42414,0 -0.80116,0.10508 -0.37702,0.10508 -0.65978,0.36778 -0.28276,0.26271 -0.28276,0.73558 0,0.42032 0.61265,1.05082 0.65978,0.63049 1.55519,1.47114 0.94255,0.84066 2.02647,1.94402 1.13105,1.10336 2.02647,2.52197 0.94254,1.4186 1.55519,3.20499 0.65978,1.7864 0.65978,3.99312 0,2.3118 -0.65978,4.3609 -0.65978,1.99656 -2.07359,3.52024 -1.36669,1.47115 -3.53454,2.3118 -2.16784,0.89321 -5.13685,0.89321 -1.79083,0 -3.34602,-0.21017 -1.50807,-0.15763 -2.68625,-0.42033 -1.36669,-0.26271 -2.49774,-0.63049 z"
         style="font-family:Phosphate;-inkscape-font-specification:'Phosphate, Normal';stroke-width:1.24401"
         id="path11432" />
      <path
         d="m 133.36764,525.29871 -9.75531,-19.96556 h 11.16912 l 3.62879,7.40827 3.58166,-7.40827 h 11.16912 l -9.75531,19.96556 v 15.07925 h -10.03807 z m 5.65525,10.87598 V 523.6174 l 6.88056,-14.08098 h -1.46094 l -6.03227,12.45221 -6.07939,-12.45221 h -1.41382 l 6.83343,14.08098 v 12.55729 z"
         style="font-family:Phosphate;-inkscape-font-specification:'Phosphate, Normal';stroke-width:1.24401"
         id="path11434" />
      <path
         d="m 54.43125,546.73626 h 7.04 l 6.96,16.19418 6.92,-16.19418 h 7.04 v 42.19347 h -8.52 v -15.18206 l -5.44,12.65171 -5.48,-12.65171 v 15.18206 h -8.52 z m 5.04,37.13277 v -29.03567 l 8.96,20.62228 8.92,-20.62228 v 29.03567 h 1.04 v -32.07209 h -1.04 l -8.92,20.81207 -8.96,-20.81207 h -1.04 v 32.07209 z"
         style="font-family:Phosphate;-inkscape-font-specification:'Phosphate, Normal';stroke-width:1.25757"
         id="path11436" />
      <path
         d="m 85.2125,546.73626 h 15.72 v 11.07025 h -7.2 v 4.68113 h 7.08 v 10.50092 h -7.08 v 4.87091 h 7.48 v 11.07026 h -16 z m 13.04,37.13277 v -1.5182 h -8 V 568.4972 h 7.6 v -1.5182 h -7.6 v -13.66385 h 8 v -1.51821 h -9.04 v 32.07209 z"
         style="font-family:Phosphate;-inkscape-font-specification:'Phosphate, Normal';stroke-width:1.25757"
         id="path11438" />
      <path
         d="m 103.65,546.73626 h 7 l 7.36,16.25745 v -16.25745 h 8.36 v 42.19347 h -7.04 l -7.32,-16.1942 v 16.1942 h -8.36 z m 4.76,37.13277 v -29.22545 l 13.2,29.22545 h 1.04 v -32.07209 h -1.04 v 29.22546 l -13.2,-29.22546 h -1.04 v 32.07209 z"
         style="font-family:Phosphate;-inkscape-font-specification:'Phosphate, Normal';stroke-width:1.25757"
         id="path11440" />
      <path
         d="m 140.11687,590.00512 q -2.52,0 -4.56,-1.01214 -2.04,-1.01214 -3.48,-3.03641 -1.44,-2.02428 -2.24,-5.12395 -0.76,-3.09966 -0.76,-7.27473 v -26.82163 h 8.52 v 26.2523 q 0,2.21406 0.56001,3.41596 0.59999,1.13866 1.95999,1.13866 1.36,0 1.92,-1.13866 0.6,-1.2019 0.6,-3.41596 v -26.2523 h 8.56 v 26.82163 q 0,4.17507 -0.8,7.27473 -0.76,3.09967 -2.23999,5.12395 -1.44,2.02427 -3.48001,3.03641 -2.04,1.01214 -4.56,1.01214 z m 0,-7.59103 q -6,0 -6,-9.29901 v -21.31814 h -1.04 v 21.31814 q 0,5.31372 1.8,8.16037 1.84,2.78336 5.24,2.78336 3.4,0 5.24,-2.78336 1.84,-2.84665 1.84,-8.16037 v -21.31814 h -1.08 v 21.31814 q 0,9.29901 -6,9.29901 z"
         style="font-family:Phosphate;-inkscape-font-specification:'Phosphate, Normal';stroke-width:1.25757"
         id="path11442" />
    </g>
    <rect
       width="62.212112"
       height="57.549034"
       transform="scale(-1)"
       style="fill:#005683;stroke-width:0.0636586"
       id="rect11593"
       x="-199.2518"
       y="-193.53957" />
    <path
       d="m 179.52242,144.13306 h -22.75346 a 0.2892863,0.30289654 0 0 0 -0.28804,0.3042 v 23.60183 a 0.2892863,0.30289654 0 0 0 0.28804,0.30159 h 22.75346 a 0.2892863,0.30289654 0 0 0 0.28804,-0.30159 v -23.60183 a 0.2892863,0.30289654 0 0 0 -0.28804,-0.3042 z m -8.11433,7.8499 c 0.31666,-0.45597 1.69341,-1.58809 2.42627,0.0924 0.10576,0.24426 0.12443,0.36932 -0.0342,0.33676 -0.27685,-0.0548 -1.11982,-0.32571 -2.39268,-0.0325 -0.25072,0.0566 -0.16486,-0.15764 6.9e-4,-0.39669 z m 1.67973,8.61595 c 0.13002,-0.0515 0.20281,-0.0411 0.24885,0.0378 0.0411,0.0924 0.018,0.16286 -0.0703,0.2332 -0.52134,0.41038 -1.61254,1.02399 -3.26116,1.02399 -0.93318,0 -1.88503,-0.32049 -2.5563,-0.61361 -0.0778,-0.0325 -0.15553,-0.0653 -0.22832,-0.10027 -0.16299,-0.0787 -0.30297,-0.14982 -0.41184,-0.2065 -0.0237,-0.0136 -0.0417,-0.0214 -0.0622,-0.0325 -0.0205,-0.0111 -0.0392,-0.0221 -0.0548,-0.03 -0.12442,-0.073 -0.11882,-0.20322 -0.0467,-0.26902 a 0.18663632,0.19541711 0 0 1 0.17669,-0.0352 h 0.005 c 0.14246,0.0411 0.29053,0.0814 0.44046,0.11985 l 0.10887,0.0241 c 0.9363,0.22278 1.95222,0.35827 2.60544,0.35827 0.10701,0 1.62374,0.0736 3.10377,-0.51004 z m -15.9095,-15.4588 a 0.27062267,0.28335483 0 0 1 0.26938,-0.28206 h 10.20278 c 0.0106,0.0294 0.018,0.0592 0.0286,0.0893 0.0106,0.0298 0.018,0.0652 0.0286,0.0978 0.0106,0.0325 0.0205,0.0652 0.0286,0.095 0.0286,0.095 0.0541,0.1902 0.0803,0.28531 0.45353,1.68514 0.61155,3.3983 0.70487,4.81248 0.0547,0.8253 0.0883,1.54444 0.14308,2.09552 0.005,0.0378 0.007,0.0814 0.0125,0.1192 0.19971,1.57701 0.81934,3.08888 0.99851,3.49927 0.36518,0.74649 0.45352,1.34903 0.24885,1.78612 -0.28804,0.62663 -1.10178,0.73801 -1.1951,0.74909 -0.24138,0.0267 -0.39691,0.10549 -0.47716,0.2332 a 0.32910204,0.34458552 0 0 0 -0.0467,0.22277 2.6788533,2.804887 0 0 0 0.12442,0.66767 c 0.0491,0.18696 0.10141,0.38562 0.0883,0.48595 -0.0572,0.32568 -0.25693,0.34458 -0.48463,0.33938 h -0.0523 a 6.4445521,6.7477532 0 0 1 -1.04205,-0.1088 18.031557,18.8799 0 0 1 -2.35659,-0.6188 0.16983905,0.17782959 0 0 0 -0.1997,0.0892 0.16486208,0.17261846 0 0 0 0.0622,0.22018 c 0.81684,0.53998 1.89498,1.06438 2.43933,1.31647 0.21277,0.0978 0.34528,0.15503 0.34777,0.15762 0.26191,0.12442 0.40189,0.29573 0.39629,0.47227 -0.006,0.17651 -0.163,0.36347 -0.37825,0.44749 -0.28804,0.10879 -0.40936,0.26057 -0.45104,0.40191 l -0.0106,0.185 c 0.006,0.0241 0.008,0.0456 0.0131,0.0652 0.26191,0.93932 0.2644,1.19399 0.2644,1.19985 a 0.1300233,0.13614058 0 0 0 0,0.0325 1.2859242,1.346424 0 0 1 -0.17855,0.92563 1.5708557,1.6447609 0 0 1 -0.18664,0.23059 0.4130884,0.43252323 0 0 1 -0.0467,0.0489 c 0,0 0,0.005 -0.006,0.007 -0.006,0.002 -0.005,0 -0.01,0.005 a 1.1067534,1.1588234 0 0 1 -0.33221,0.22212 c -2.45987,1.02335 -6.34875,-0.68656 -8.49009,-2.54042 q -0.13998,-0.1218 -0.27249,-0.24426 c -0.0933,-0.0867 -0.18104,-0.17393 -0.26689,-0.26057 v 0 z m 21.93474,22.19613 a 0.27124478,0.28400621 0 0 1 -0.26938,0.28205 h -21.39847 a 0.27124478,0.28400621 0 0 1 -0.26938,-0.28205 v -3.89272 c 0.0827,0.0814 0.17357,0.16546 0.26938,0.24948 0.0858,0.0763 0.17917,0.15243 0.27249,0.22539 1.63555,1.31646 4.48487,2.66028 6.87506,2.66028 0.6638,0 1.2909,-0.10294 1.84583,-0.33937 a 1.9826998,2.0759812 0 0 0 0.46659,-0.30941 c 0.0286,-0.0275 0.0523,-0.0572 0.0778,-0.084 0.85293,0.43969 1.82282,0.66508 2.891,0.66508 h 0.0622 c 1.77802,0 3.26863,-0.61361 4.43013,-1.8239 2.51212,-2.61664 2.70934,-7.26886 2.72489,-7.92025 h 0.0131 c 0.50268,0 0.62959,-0.68136 0.68433,-0.98554 l 0.0106,-0.0515 c 0.0386,-0.2039 0.0131,-0.62405 -0.0131,-1.02855 -0.0106,-0.1902 -0.0236,-0.37195 -0.0262,-0.49701 0.0106,-0.24167 0.0728,-0.63511 0.13998,-1.0533 0.0753,-0.48333 0.15304,-0.98229 0.15304,-1.2624 0,-0.043 0,-0.0945 0,-0.14656 0.0106,-0.31461 0.0237,-0.78948 -0.25631,-1.02334 -0.1686,-0.13809 -0.41993,-0.16804 -0.74655,-0.0892 -0.01,-0.34199 -0.0125,-1.22136 -0.0125,-1.23244 0,-0.0111 -0.0155,-0.79796 -0.0622,-1.59851 a 12.421269,13.005661 0 0 0 -0.40998,-2.37236 c -0.023,-0.095 -0.0491,-0.1876 -0.0753,-0.28533 -0.0261,-0.0978 -0.0566,-0.18758 -0.0852,-0.28204 h 2.4412 a 0.27062267,0.28335483 0 0 1 0.26938,0.28204 z"
       style="fill:#ffffff;stroke-width:0.0636586"
       id="path11595" />
    <path
       d="m 164.93741,152.47737 c -0.21276,-0.06 -0.74655,-0.26903 -1.56339,-0.2827 a 5.5144809,5.7739244 0 0 0 -0.82182,0.0521 c -0.25383,0.0353 -0.15242,-0.1713 0.0342,-0.39669 0.20965,-0.26054 0.81622,-0.72434 1.39977,-0.68396 0.38883,0.0274 0.76708,0.28205 1.00846,0.97709 0.0852,0.25274 0.0983,0.37715 -0.0572,0.33416 z"
       style="fill:#ffffff;stroke-width:0.0636586"
       id="path11597" />
    <path
       d="m 146.42184,184.0418 v 0.4436 h -1.60569 v -3.10584 h 0.47032 v 2.66224 z"
       style="fill:#ffffff;stroke-width:0.0636586"
       id="path11599" />
    <path
       d="m 147.14475,181.4447 -0.37328,1.11127 -0.31106,-0.0939 0.20655,-1.10735 z"
       style="fill:#ffffff;stroke-width:0.0636586"
       id="path11601" />
    <path
       d="m 148.09348,181.42842 a 0.29986237,0.31397018 0 1 1 -0.0877,-0.22604 0.29364114,0.30745627 0 0 1 0.0877,0.22604 z m -0.0858,0.83833 v 2.21865 h -0.43548 v -2.21865 z"
       style="fill:#ffffff;stroke-width:0.0636586"
       id="path11603" />
    <path
       d="m 149.143,182.8491 v 1.6363 h -0.43548 v -2.21865 h 0.43548 v 0.16285 l 0.0118,0.0125 a 1.1335046,1.1868332 0 0 1 0.30732,-0.1648 1.0488961,1.0982441 0 0 1 0.33035,-0.0548 c 0.20468,0 0.36021,0.0592 0.46659,0.17914 0.10638,0.11985 0.15926,0.29573 0.15926,0.52893 v 1.55486 h -0.43548 v -1.4044 q 0,-0.24817 -0.0703,-0.34979 a 0.27248903,0.28530899 0 0 0 -0.23703,-0.10222 0.83675285,0.8761201 0 0 0 -0.31106,0.0653 0.51262775,0.53674569 0 0 0 -0.22148,0.15504 z"
       style="fill:#ffffff;stroke-width:0.0636586"
       id="path11605" />
    <path
       d="m 151.67752,182.65369 v 1.83171 h -0.43548 v -1.83171 h -0.31853 v -0.38694 h 0.31853 q 0.0162,-0.54912 0.21027,-0.79534 0.19411,-0.24623 0.59102,-0.24623 a 1.2722376,1.3320933 0 0 1 0.20032,0.0164 1.2044264,1.2610919 0 0 1 0.20406,0.0528 v 0.42405 a 0.47716686,0.49961642 0 0 0 -0.15367,-0.069 0.77951769,0.81619218 0 0 0 -0.20032,-0.0247 q -0.23703,0 -0.32661,0.1244 -0.0896,0.12443 -0.0896,0.52113 h 0.56364 v 0.38692 z"
       style="fill:#ffffff;stroke-width:0.0636586"
       id="path11607" />
    <path
       d="m 154.4808,183.37803 q 0,0.51655 -0.26067,0.83444 a 0.95371159,0.99858148 0 0 1 -1.39542,0 q -0.26004,-0.31724 -0.26067,-0.83444 -6.9e-4,-0.51719 0.26067,-0.8364 a 0.94873464,0.99337037 0 0 1 1.39355,0 q 0.26254,0.31984 0.26254,0.8364 z m -0.43922,0 a 0.87096949,0.91194656 0 0 0 -0.13998,-0.5452 0.44606083,0.46704692 0 0 0 -0.38136,-0.20392 0.44046173,0.46118442 0 0 0 -0.38073,0.20194 q -0.13625,0.20129 -0.13625,0.54718 c 0,0.23058 0.0454,0.41298 0.13625,0.54586 a 0.47467837,0.49701088 0 0 0 0.76209,0 0.86412618,0.90478127 0 0 0 0.13998,-0.54586 z"
       style="fill:#ffffff;stroke-width:0.0636586"
       id="path11609" />
    <path
       d="m 155.46064,183.02106 v 1.46563 h -0.43549 v -2.21994 h 0.43549 v 0.26512 l 0.0155,0.0117 a 0.74965587,0.78492542 0 0 1 0.26253,-0.23777 0.71979407,0.75365868 0 0 1 0.33968,-0.0834 c 0.0237,0 0.046,0 0.0684,0 0.0224,0 0.0429,0.003 0.0622,0.005 v 0.49635 a 0.20903268,0.21886718 0 0 0 -0.0392,-0.004 h -0.0467 a 1.027744,1.076097 0 0 0 -0.41371,0.0794 0.51884899,0.54325961 0 0 0 -0.24885,0.22082 z"
       style="fill:#ffffff;stroke-width:0.0636586"
       id="path11611" />
    <path
       d="m 157.11237,182.8452 v 1.6402 h -0.43548 v -2.21865 h 0.43548 v 0.16285 l 0.0118,0.0125 a 1.0681819,1.1184372 0 0 1 0.30111,-0.16675 1.0252555,1.0734914 0 0 1 0.32101,-0.0528 0.72601531,0.76017262 0 0 1 0.31666,0.0652 0.40437867,0.42340375 0 0 1 0.19286,0.19085 1.14097,1.19465 0 0 1 0.33781,-0.19085 1.1571452,1.2115862 0 0 1 0.377,-0.0652 q 0.31542,0 0.46846,0.17457 0.15304,0.17457 0.15366,0.5335 v 1.55485 h -0.43548 v -1.40437 q 0,-0.24036 -0.0716,-0.34589 a 0.27373328,0.28661178 0 0 0 -0.23951,-0.10616 0.71606133,0.74975035 0 0 0 -0.28742,0.0653 0.47841111,0.50091922 0 0 0 -0.20592,0.15437 v 1.63629 h -0.43549 v -1.37899 c 0,-0.17653 -0.023,-0.30029 -0.0678,-0.37065 -0.0448,-0.0703 -0.12442,-0.10614 -0.23951,-0.10614 a 0.77454074,0.81098105 0 0 0 -0.29116,0.0613 0.44854929,0.46965248 0 0 0 -0.20654,0.15504 z"
       style="fill:#ffffff;stroke-width:0.0636586"
       id="path11613" />
    <path
       d="m 161.43985,184.2776 a 0.73099226,0.76538372 0 0 1 -0.26254,0.18368 0.90829676,0.95102998 0 0 1 -0.34403,0.069 0.64638377,0.67679463 0 0 1 -0.47841,-0.1876 0.63331923,0.66311544 0 0 1 -0.17855,-0.49244 0.58852655,0.61621532 0 0 1 0.23889,-0.52699 q 0.2389,-0.18564 0.68434,-0.18499 h 0.2955 a 0.09082968,0.095103 0 0 0 0.004,-0.0287 v -0.0572 q 0,-0.23581 -0.0989,-0.3296 c -0.0659,-0.0653 -0.18104,-0.0939 -0.34403,-0.0939 a 1.3350718,1.3978837 0 0 0 -0.31106,0.0372 1.5553026,1.628476 0 0 0 -0.31106,0.1179 v -0.4195 a 1.0576058,1.1073637 0 0 1 0.15366,-0.0586 q 0.0877,-0.026 0.19223,-0.0468 a 1.3643115,1.4284991 0 0 1 0.18291,-0.0287 c 0.0622,-0.005 0.12442,-0.007 0.1829,-0.007 q 0.41931,0 0.60222,0.21169 0.1829,0.2117 0.1829,0.6794 v 1.37184 h -0.31479 l -0.0666,-0.20324 z m -0.29178,-0.80056 c -0.18166,0 -0.31541,0.0274 -0.40251,0.0814 a 0.26937842,0.28205205 0 0 0 -0.13003,0.26057 0.31106052,0.32569519 0 0 0 0.0852,0.24817 0.34589931,0.36217307 0 0 0 0.24885,0.086 0.66193681,0.69307938 0 0 0 0.28991,-0.0697 0.43548474,0.45597327 0 0 0 0.19224,-0.16284 v -0.4436 z"
       style="fill:#ffffff;stroke-width:0.0636586"
       id="path11615" />
    <path
       d="m 163.67077,184.45412 a 0.90083131,0.9432133 0 0 1 -0.19037,0.0566 1.1602558,1.214843 0 0 1 -0.21401,0.0208 c -0.22272,0 -0.38882,-0.0653 -0.49769,-0.19542 -0.10887,-0.13027 -0.16487,-0.3257 -0.16487,-0.58625 v -1.09239 h -0.34216 v -0.39083 h 0.34216 v -0.58625 h 0.43549 v 0.58624 h 0.59101 v 0.39083 h -0.59101 v 0.839 q 0,0.36152 0.0678,0.49246 0.0678,0.13092 0.25445,0.13027 a 0.91016311,0.95298416 0 0 0 0.15802,-0.0164 1.1913618,1.2474127 0 0 0 0.15304,-0.0411 z"
       style="fill:#ffffff;stroke-width:0.0636586"
       id="path11617" />
    <path
       d="m 164.70101,181.42842 a 0.30483932,0.3191813 0 1 1 -0.30298,-0.31788 0.29612964,0.31006185 0 0 1 0.21588,0.0918 0.29301903,0.30680488 0 0 1 0.0871,0.22603 z m -0.0852,0.83833 v 2.21865 h -0.43549 v -2.21865 z"
       style="fill:#ffffff;stroke-width:0.0636586"
       id="path11619" />
    <path
       d="m 166.50516,184.31472 a 0.70050833,0.7334656 0 0 1 -0.23143,0.1609 0.75152225,0.7868796 0 0 1 -0.28182,0.0547 0.72352678,0.75756703 0 0 1 -0.60284,-0.31527 q -0.22956,-0.31528 -0.22956,-0.81229 0,-0.52567 0.26253,-0.85266 a 0.86350404,0.90412987 0 0 1 0.6974,-0.32569 0.9207392,0.96405779 0 0 1 0.21961,0.026 0.86101555,0.90152433 0 0 1 0.20405,0.0834 l 0.41247,-0.0978 v 3.16316 h -0.43922 v -1.07544 z m 0.0118,-1.5718 a 0.55990897,0.58625137 0 0 0 -0.16548,-0.0788 0.6880659,0.72043778 0 0 0 -0.20033,-0.0306 0.48027747,0.50287339 0 0 0 -0.40437,0.20325 q -0.14745,0.20453 -0.14745,0.55366 a 0.84857314,0.8884965 0 0 0 0.13998,0.5374 0.44792718,0.4690011 0 0 0 0.38074,0.19932 0.46348018,0.48528586 0 0 0 0.24138,-0.0652 0.38758142,0.40581621 0 0 0 0.15553,-0.17523 z"
       style="fill:#ffffff;stroke-width:0.0636586"
       id="path11621" />
    <path
       d="m 168.91961,184.31017 a 1.1633664,1.2181001 0 0 1 -0.30733,0.16545 1.0576058,1.1073637 0 0 1 -0.33035,0.0547 q -0.30733,0 -0.46659,-0.17913 c -0.10638,-0.11986 -0.15926,-0.29573 -0.15926,-0.52958 v -1.55487 h 0.43549 v 1.4057 c 0,0.16547 0.0237,0.28269 0.0703,0.35045 a 0.27248903,0.28530899 0 0 0 0.23703,0.1017 0.85541649,0.8956618 0 0 0 0.31106,-0.0652 0.49023141,0.51329563 0 0 0 0.22334,-0.15438 v -1.63824 h 0.43549 v 2.21863 h -0.43549 v -0.16155 z"
       style="fill:#ffffff;stroke-width:0.0636586"
       id="path11623" />
    <path
       d="m 171.60593,184.40397 a 1.8253032,1.9111793 0 0 1 -0.31915,0.0957 1.6983905,1.7782959 0 0 1 -0.31106,0.0305 q -0.50143,0 -0.78325,-0.29963 -0.28183,-0.29965 -0.28183,-0.84031 0,-0.53348 0.26441,-0.8507 0.2644,-0.31722 0.71544,-0.31722 0.38447,0 0.59474,0.24165 0.21028,0.24166 0.20966,0.67419 a 1.6231139,1.6994776 0 0 1 -0.0118,0.20323 1.7618469,1.8447376 0 0 1 -0.0348,0.21171 h -1.31392 a 0.63331923,0.66311544 0 0 0 0.19846,0.43122 q 0.15988,0.14264 0.44668,0.14264 a 1.4433209,1.5112257 0 0 0 0.30173,-0.0345 1.9976307,2.0916146 0 0 0 0.32474,-0.10354 z m -0.30733,-1.35164 a 0.41059991,0.42991767 0 0 0 -0.44295,-0.46769 0.46783503,0.48984557 0 0 0 -0.36581,0.15828 0.70175258,0.73476839 0 0 0 -0.15553,0.45207 h 0.95247 c 0,-0.0214 0.005,-0.0456 0.008,-0.0709 0.003,-0.0253 0.004,-0.0495 0.004,-0.0716 z"
       style="fill:#ffffff;stroke-width:0.0636586"
       id="path11625" />
    <path
       d="m 174.06641,184.44435 v 0.95298 h -0.43921 v -3.13058 h 0.43921 v 0.15895 l 0.0118,0.0125 a 0.68433315,0.71652943 0 0 1 0.2333,-0.15895 0.77143014,0.8077241 0 0 1 0.28741,-0.0566 0.70984013,0.74323645 0 0 1 0.59662,0.31724 q 0.22894,0.31787 0.22894,0.80706 0,0.52568 -0.26067,0.85332 a 0.85106164,0.89110208 0 0 1 -0.68806,0.3257 0.99539371,1.0422246 0 0 1 -0.22708,-0.0247 0.51138354,0.53544292 0 0 1 -0.16922,-0.0729 z m 0.41185,-1.81933 a 0.51138354,0.53544292 0 0 0 -0.24885,0.0652 0.37327263,0.39083425 0 0 0 -0.16113,0.16546 v 1.15948 a 0.416199,0.43578019 0 0 0 0.14993,0.0755 0.73472497,0.76929205 0 0 0 0.19597,0.0268 0.51138354,0.53544292 0 0 0 0.4218,-0.19542 q 0.14993,-0.19542 0.14993,-0.55174 0,-0.34588 -0.13625,-0.54781 a 0.42988565,0.45011077 0 0 0 -0.3714,-0.19737 z"
       style="fill:#ffffff;stroke-width:0.0636586"
       id="path11627" />
    <path
       d="m 177.72635,183.37803 q 0,0.51655 -0.26067,0.83444 a 0.95371159,0.99858148 0 0 1 -1.39541,0 q -0.26005,-0.31724 -0.26067,-0.83444 -7e-4,-0.51719 0.26067,-0.8364 a 0.94873464,0.99337037 0 0 1 1.39355,0 q 0.26253,0.31984 0.26253,0.8364 z m -0.43922,0 a 0.87096949,0.91194656 0 0 0 -0.13997,-0.5452 0.44668293,0.4676983 0 0 0 -0.37888,-0.2026 0.44046173,0.46118442 0 0 0 -0.38073,0.20193 q -0.13625,0.20127 -0.13625,0.54718 c 0,0.23058 0.0454,0.41298 0.13625,0.54586 a 0.44170594,0.46248718 0 0 0 0.38073,0.19933 0.44606083,0.46704692 0 0 0 0.38137,-0.20195 0.86412618,0.90478127 0 0 0 0.14122,-0.54455 z"
       style="fill:#ffffff;stroke-width:0.0636586"
       id="path11629" />
    <path
       d="m 179.5361,184.31017 a 1.1596337,1.2141917 0 0 1 -0.3067,0.16545 1.0576058,1.1073637 0 0 1 -0.33035,0.0547 q -0.31106,0 -0.46659,-0.17913 c -0.10638,-0.11986 -0.15926,-0.29573 -0.15926,-0.52958 v -1.55487 h 0.43548 v 1.4057 c 0,0.16547 0.0237,0.28269 0.0703,0.35045 a 0.27248903,0.28530899 0 0 0 0.23703,0.1017 0.85541649,0.8956618 0 0 0 0.31106,-0.0652 0.49023141,0.51329563 0 0 0 0.22334,-0.15438 v -1.63824 h 0.43549 v 2.21863 h -0.43549 v -0.16155 z"
       style="fill:#ffffff;stroke-width:0.0636586"
       id="path11631" />
    <path
       d="m 181.11878,183.02106 v 1.46563 h -0.43548 v -2.21994 h 0.43548 v 0.26512 l 0.0155,0.0117 a 0.74965587,0.78492542 0 0 1 0.26253,-0.23908 0.72166043,0.75561286 0 0 1 0.33968,-0.0834 c 0.0237,0 0.046,0 0.0684,0 0.0224,0 0.0429,0.003 0.0622,0.005 v 0.49636 a 0.20903268,0.21886718 0 0 0 -0.0392,-0.004 h -0.0467 a 1.027744,1.076097 0 0 0 -0.41371,0.0794 0.51884899,0.54325961 0 0 0 -0.24885,0.22213 z"
       style="fill:#ffffff;stroke-width:0.0636586"
       id="path11633" />
    <path
       d="m 184.90128,184.45412 a 0.92260555,0.96601197 0 0 1 -0.19037,0.0566 1.1658549,1.2207057 0 0 1 -0.21401,0.0208 q -0.33408,0 -0.4977,-0.19542 -0.16362,-0.19542 -0.16549,-0.58625 v -1.09239 h -0.34216 v -0.39083 h 0.34216 v -0.58625 h 0.43549 v 0.58624 h 0.59102 v 0.39083 h -0.59102 v 0.839 q 0,0.36152 0.0684,0.49246 0.0684,0.13092 0.25445,0.13027 a 0.90394191,0.94647027 0 0 0 0.1574,-0.0164 1.1758088,1.2311279 0 0 0 0.15366,-0.0411 z"
       style="fill:#ffffff;stroke-width:0.0636586"
       id="path11635" />
    <path
       d="m 187.1714,183.37803 q 0,0.51655 -0.26005,0.83444 a 0.95433373,0.99923288 0 0 1 -1.39604,0 q -0.26129,-0.31724 -0.26129,-0.83444 0,-0.51719 0.26005,-0.8364 a 0.94935674,0.99402175 0 0 1 1.39417,0 q 0.26378,0.31984 0.26316,0.8364 z m -0.43922,0 a 0.87096949,0.91194656 0 0 0 -0.13998,-0.5452 0.47156777,0.49375391 0 0 0 -0.7621,0 q -0.13562,0.20127 -0.13562,0.54714 c 0,0.23061 0.0454,0.41298 0.13562,0.54587 a 0.47467837,0.49701088 0 0 0 0.7621,0 0.86412618,0.90478127 0 0 0 0.13998,-0.54781 z"
       style="fill:#ffffff;stroke-width:0.0636586"
       id="path11637" />
    <path
       d="m 188.97928,184.31017 a 1.1596337,1.2141917 0 0 1 -0.30671,0.16545 1.0576058,1.1073637 0 0 1 -0.33097,0.0547 q -0.3067,0 -0.46659,-0.17913 c -0.10638,-0.11986 -0.15926,-0.29573 -0.15926,-0.52958 v -1.55487 h 0.43549 v 1.4057 c 0,0.16547 0.0237,0.28269 0.0703,0.35045 a 0.27186692,0.28465761 0 0 0 0.23702,0.1017 0.85541649,0.8956618 0 0 0 0.31106,-0.0652 0.49396411,0.51720397 0 0 0 0.22334,-0.15438 v -1.63824 h 0.43549 v 2.21863 h -0.43549 v -0.16155 z"
       style="fill:#ffffff;stroke-width:0.0636586"
       id="path11639" />
    <path
       d="m 191.47523,183.86786 a 0.55990897,0.58625137 0 0 1 -0.21401,0.47879 q -0.21339,0.18043 -0.57111,0.18109 a 1.5011782,1.571805 0 0 1 -0.35585,-0.045 0.9425134,0.98685647 0 0 1 -0.28618,-0.11791 v -0.43188 a 0.57359561,0.60058196 0 0 0 0.12443,0.0879 1.1994494,1.2558806 0 0 0 0.16548,0.0709 1.233044,1.2910558 0 0 0 0.15926,0.0384 0.99041672,1.0370134 0 0 0 0.16736,0.0144 0.58292745,0.6103528 0 0 0 0.28368,-0.0592 0.17543814,0.18369208 0 0 0 0.10079,-0.1687 0.21089904,0.22082134 0 0 0 -0.0734,-0.16287 1.2249564,1.2825877 0 0 0 -0.32289,-0.18304 c -0.12442,-0.0572 -0.21587,-0.10294 -0.27373,-0.13809 a 0.99974856,1.0467844 0 0 1 -0.14993,-0.11008 0.55990897,0.58625137 0 0 1 -0.14993,-0.20128 0.57421772,0.60123333 0 0 1 -0.0485,-0.25078 0.54871078,0.57452635 0 0 1 0.20841,-0.47227 q 0.20841,-0.17457 0.56925,-0.17457 a 1.3493806,1.4128658 0 0 1 0.33034,0.0423 0.94313554,0.98750786 0 0 1 0.26067,0.10811 v 0.40712 a 1.3064542,1.3679199 0 0 0 -0.29737,-0.12636 1.1590115,1.2135403 0 0 0 -0.30547,-0.045 0.44854929,0.46965248 0 0 0 -0.24884,0.0613 0.18228147,0.19085738 0 0 0 -0.0871,0.16675 0.20467783,0.21430745 0 0 0 0.0734,0.16089 1.2678827,1.3275337 0 0 0 0.32288,0.1811 2.5718485,2.6928479 0 0 1 0.27436,0.13418 0.94935674,0.99402175 0 0 1 0.1493,0.11009 0.52507019,0.5497735 0 0 1 0.19473,0.44359 z"
       style="fill:#ffffff;stroke-width:0.0636586"
       id="path11641" />
    <path
       d="m 145.79723,176.42638 v 2.10465 h -0.97361 v -5.35312 h 0.97361 v 2.02647 h 0.96491 v -2.02647 h 0.97362 v 5.35312 h -0.97362 v -2.10465 z"
       style="fill:#ffffff;stroke-width:0.0636586"
       id="path11643" />
    <path
       d="m 149.71038,178.15909 a 1.1291497,1.1822737 0 0 1 -0.31106,0.3511 0.64016257,0.67028073 0 0 1 -0.3459,0.0978 0.60843443,0.63705983 0 0 1 -0.54063,-0.3257 q -0.19721,-0.32568 -0.19659,-0.87285 0,-0.60385 0.28369,-0.89827 0.28369,-0.29443 0.86413,-0.29443 h 0.15615 a 0.19472389,0.20388521 0 0 0 0.005,-0.0456 v -0.10877 a 0.32599143,0.34132856 0 0 0 -0.10078,-0.27749 0.47841111,0.50091922 0 0 0 -0.31106,-0.0873 1.1695876,1.2246139 0 0 0 -0.32599,0.0456 1.7587363,1.8414806 0 0 0 -0.35772,0.1648 v -1.10215 a 1.860142,1.9476573 0 0 1 0.38882,-0.12638 2.255811,2.3619416 0 0 1 0.43549,-0.0422 q 0.62212,0 0.89088,0.42144 0.26875,0.42145 0.26564,1.37508 v 2.09749 h -0.69304 l -0.089,-0.36477 z m -0.18664,-1.22787 a 0.35336475,0.36998974 0 0 0 -0.26565,0.0912 c -0.0548,0.0612 -0.0821,0.1661 -0.0821,0.31591 a 0.47094563,0.49310253 0 0 0 0.0535,0.26056 0.16361784,0.17131569 0 0 0 0.14682,0.0911 0.32412506,0.33937438 0 0 0 0.19472,-0.0736 0.36829568,0.3856231 0 0 0 0.13189,-0.17131 v -0.51265 z"
       style="fill:#ffffff;stroke-width:0.0636586"
       id="path11645" />
    <path
       d="m 152.07381,175.88574 v 2.64529 h -0.89399 v -3.82366 h 0.89399 v 0.24558 l 0.0174,0.0208 a 1.0028592,1.0500413 0 0 1 0.30422,-0.25601 0.7676974,0.80381576 0 0 1 0.35274,-0.0879 0.64451742,0.67484046 0 0 1 0.58293,0.33678 q 0.19846,0.33676 0.19846,0.98946 v 2.57495 h -0.89337 v -2.28436 a 1.1708319,1.2259168 0 0 0 -0.0448,-0.41038 0.16299572,0.17066428 0 0 0 -0.16486,-0.11594 0.46783503,0.48984557 0 0 0 -0.19224,0.0456 0.44543869,0.46639552 0 0 0 -0.16051,0.11985 z"
       style="fill:#ffffff;stroke-width:0.0636586"
       id="path11647" />
    <path
       d="m 155.59813,178.22943 a 0.72041622,0.75431009 0 0 1 -0.25507,0.28076 0.673135,0.70480441 0 0 1 -0.35274,0.0978 q -0.41558,0 -0.67003,-0.53608 -0.25444,-0.53612 -0.25444,-1.42784 0,-0.88461 0.27,-1.4487 0.27,-0.5641 0.7173,-0.56541 a 0.81249012,0.85071588 0 0 1 0.27684,0.0534 0.94375765,0.98815925 0 0 1 0.2613,0.15114 l 0.0224,-0.0208 v -1.83237 h 0.89337 v 5.54985 h -0.89585 v -0.28791 z m 0.0131,-2.42056 a 0.27933237,0.2924743 0 0 0 -0.10949,-0.0736 0.38571507,0.40386203 0 0 0 -0.13189,-0.0247 q -0.19597,0 -0.3036,0.24231 -0.10762,0.24232 -0.10949,0.67679 a 1.6175148,1.693615 0 0 0 0.10265,0.66639 c 0.0684,0.16415 0.16548,0.24558 0.29053,0.24558 a 0.24884842,0.26055616 0 0 0 0.1518,-0.0528 0.33656749,0.35240221 0 0 0 0.107,-0.15047 z"
       style="fill:#ffffff;stroke-width:0.0636586"
       id="path11649" />
    <path
       d="m 158.63097,178.53103 q -0.24885,0.98165 -0.52507,1.3119 -0.27622,0.33025 -0.78512,0.3296 c -0.0479,0 -0.097,0 -0.14744,0 a 1.5596575,1.6330357 0 0 1 -0.16362,-0.0176 v -1.22395 l 0.12443,0.011 c 0.0267,0 0.0504,0 0.0709,0 a 0.7465453,0.78166849 0 0 0 0.40438,-0.10484 0.50702866,0.53088316 0 0 0 0.21649,-0.30876 l -0.96491,-3.82366 h 0.95745 l 0.31728,1.72618 c 0.0299,0.14918 0.0523,0.27815 0.0666,0.38563 a 1.8041511,1.8890323 0 0 1 0.023,0.25273 h 0.0131 c 0.003,-0.0612 0.0118,-0.14525 0.0267,-0.25273 0.0149,-0.10747 0.0361,-0.23645 0.0622,-0.38563 l 0.31106,-1.72618 h 0.96056 z"
       style="fill:#ffffff;stroke-width:0.0636586"
       id="path11651" />
    <path
       d="m 164.86213,175.85577 q 0,1.25653 -0.44855,1.99976 -0.44855,0.74325 -1.2262,0.74585 -0.77702,0 -1.22184,-0.74063 -0.44482,-0.74062 -0.4442,-2.00498 0,-1.2624 0.44606,-2.00628 0.44607,-0.7439 1.21998,-0.7439 0.77703,0 1.2262,0.74716 0.44918,0.74714 0.44855,2.00302 z m -0.97361,0 q 0,-0.72891 -0.18291,-1.1295 -0.1829,-0.40062 -0.51823,-0.39996 -0.33532,0 -0.51387,0.3967 -0.17855,0.3967 -0.17855,1.13276 0,0.73672 0.17855,1.12951 c 0.11883,0.26056 0.29053,0.39083 0.51387,0.39083 0.22335,0 0.39941,-0.13027 0.5201,-0.39604 0.12069,-0.26576 0.18104,-0.63575 0.18104,-1.1243 z"
       style="fill:#ffffff;stroke-width:0.0636586"
       id="path11653" />
    <path
       d="m 166.29177,178.4255 v 1.67669 h -0.89337 v -5.39482 h 0.89337 v 0.28075 l 0.0131,0.0136 a 0.75525496,0.79078795 0 0 1 0.26378,-0.27683 0.67375714,0.70545582 0 0 1 0.34404,-0.095 q 0.41557,0 0.67002,0.53739 0.25445,0.5374 0.25196,1.39267 0,0.91847 -0.27,1.48321 -0.27,0.56476 -0.72539,0.56476 a 0.7465453,0.78166849 0 0 1 -0.27,-0.0561 1.0370758,1.0858678 0 0 1 -0.25694,-0.1472 z m 0.2588,-2.72867 a 0.24884842,0.26055616 0 0 0 -0.1518,0.0522 0.34652142,0.36282443 0 0 0 -0.107,0.15114 v 1.52946 a 0.27933237,0.2924743 0 0 0 0.10949,0.0736 0.38571507,0.40386203 0 0 0 0.13189,0.0247 q 0.19597,0 0.3036,-0.24232 0.10762,-0.24232 0.107,-0.67679 a 1.6175148,1.693615 0 0 0 -0.10451,-0.66637 c -0.0666,-0.16417 -0.16362,-0.24558 -0.28867,-0.24558 z"
       style="fill:#ffffff;stroke-width:0.0636586"
       id="path11655" />
    <path
       d="m 170.34737,178.38381 a 1.8290359,1.9150878 0 0 1 -0.40811,0.16807 1.705856,1.7861124 0 0 1 -0.43113,0.0561 q -0.60407,0 -0.95868,-0.54716 -0.35461,-0.54716 -0.35461,-1.49431 0,-0.87611 0.32786,-1.40632 0.32785,-0.53024 0.88714,-0.53024 a 0.87781283,0.91911187 0 0 1 0.76832,0.41755 q 0.27186,0.41818 0.27249,1.16859 0,0.19541 -0.018,0.39081 a 3.3557211,3.5135999 0 0 1 -0.0491,0.35762 h -1.3444 q 0.0398,0.30877 0.1717,0.44555 c 0.0877,0.0912 0.21836,0.1368 0.39069,0.1368 a 1.2405094,1.2988725 0 0 0 0.31106,-0.0423 2.6197518,2.7430051 0 0 0 0.43549,-0.18239 z m -0.62212,-2.37171 a 0.65633772,0.68721687 0 0 0 -0.0871,-0.38236 0.27622176,0.28921735 0 0 0 -0.24325,-0.1368 0.29861812,0.3126674 0 0 0 -0.27062,0.17589 q -0.0952,0.17456 -0.10017,0.51199 h 0.68931 a 0.21960874,0.22994081 0 0 0 0.007,-0.0456 q 0.002,-0.0312 0.002,-0.1231 z"
       style="fill:#ffffff;stroke-width:0.0636586"
       id="path11657" />
    <path
       d="m 171.87841,175.88574 v 2.64529 h -0.89212 v -3.82366 h 0.89212 v 0.24558 l 0.018,0.0208 a 1.0003707,1.0474357 0 0 1 0.30359,-0.25601 0.7676974,0.80381576 0 0 1 0.35274,-0.0879 0.64576167,0.67614324 0 0 1 0.58355,0.33678 q 0.19784,0.33676 0.19846,0.98946 v 2.57495 h -0.89212 v -2.28436 a 1.1708319,1.2259168 0 0 0 -0.0448,-0.41038 0.16361784,0.17131569 0 0 0 -0.16487,-0.11594 0.46783503,0.48984557 0 0 0 -0.19223,0.0456 0.44792718,0.4690011 0 0 0 -0.16238,0.11985 z"
       style="fill:#ffffff;stroke-width:0.0636586"
       id="path11659" />
    <path
       d="m 178.08905,176.88952 q 0,0.84161 -0.36208,1.27673 -0.36207,0.43513 -1.0632,0.43513 a 2.173691,2.275958 0 0 1 -0.52258,-0.0653 2.1450734,2.2459941 0 0 1 -0.48215,-0.19541 v -1.30278 a 1.6299572,1.7066428 0 0 0 0.48215,0.30159 1.4930906,1.563337 0 0 0 0.53627,0.1055 0.45414838,0.47551498 0 0 0 0.32163,-0.1055 0.39380266,0.41233014 0 0 0 0.10701,-0.31593 0.4249087,0.44489964 0 0 0 -0.0871,-0.27033 q -0.0865,-0.12179 -0.39567,-0.31852 a 3.7451688,3.92137 0 0 1 -0.43548,-0.3257 1.4570075,1.5255563 0 0 1 -0.45726,-0.78167 2.260788,2.3671527 0 0 1 -0.0716,-0.62076 q 0,-0.75692 0.35275,-1.17837 0.35274,-0.42146 0.9873,-0.42146 a 1.7319851,1.8134709 0 0 1 0.5089,0.0808 1.3649336,1.4291506 0 0 1 0.43548,0.22799 v 1.37508 a 1.2741039,1.3340476 0 0 0 -0.43548,-0.36803 1.1496797,1.2037695 0 0 0 -0.52258,-0.13678 0.41557686,0.43512878 0 0 0 -0.27685,0.0808 0.29612964,0.31006185 0 0 0 -0.0896,0.25143 0.47156777,0.49375391 0 0 0 0.0964,0.29834 q 0.0958,0.13679 0.42615,0.36087 a 3.9150081,4.0991998 0 0 1 0.41806,0.31266 1.6890587,1.7685249 0 0 1 0.23454,0.25599 1.4514084,1.5196938 0 0 1 0.22085,0.46967 1.9285753,2.0193102 0 0 1 0.074,0.57387 z"
       style="fill:#ffffff;stroke-width:0.0636586"
       id="path11661" />
    <path
       d="m 180.98813,176.62246 q 0,0.91977 -0.33532,1.44934 -0.33532,0.52958 -0.91576,0.52958 -0.58044,0 -0.91328,-0.52958 -0.33283,-0.52957 -0.33283,-1.44934 0,-0.91847 0.33283,-1.45195 0.33284,-0.53349 0.91328,-0.53349 0.58044,0 0.91576,0.53349 0.33532,0.53348 0.33532,1.45195 z m -0.89834,0 q 0,-0.46314 -0.0871,-0.69048 -0.0871,-0.22733 -0.26564,-0.22864 -0.17419,0 -0.26129,0.22864 -0.0871,0.22864 -0.0871,0.69048 0,0.46314 0.0871,0.68788 c 0.0579,0.14981 0.14495,0.22405 0.26129,0.22405 0.11634,0 0.20779,-0.0742 0.26564,-0.22405 0.0579,-0.14983 0.0877,-0.37912 0.0877,-0.68788 z"
       style="fill:#ffffff;stroke-width:0.0636586"
       id="path11663" />
    <path
       d="m 182.96212,178.27112 a 0.99539371,1.0422246 0 0 1 -0.30359,0.25667 0.77454074,0.81098105 0 0 1 -0.35274,0.0873 0.64265107,0.67288628 0 0 1 -0.58293,-0.33676 q -0.20157,-0.33807 -0.20157,-0.98947 v -2.57431 h 0.89586 v 2.28704 a 1.1733203,1.2285223 0 0 0 0.0448,0.4104 0.16486208,0.17261846 0 0 0 0.16548,0.11593 0.46721292,0.48919419 0 0 0 0.19161,-0.0456 0.44170594,0.46248718 0 0 0 0.16114,-0.12311 v -2.64467 h 0.89336 v 3.81652 h -0.89336 v -0.23841 z"
       style="fill:#ffffff;stroke-width:0.0636586"
       id="path11665" />
    <path
       d="m 185.48171,176.4824 v 2.04863 h -0.89336 v -3.82366 h 0.89336 v 0.45598 l 0.018,0.0214 a 1.4657172,1.5346758 0 0 1 0.31479,-0.42863 0.49769686,0.52111232 0 0 1 0.31915,-0.12637 0.71854983,0.75235593 0 0 1 0.0939,0.007 0.63891833,0.66897794 0 0 1 0.107,0.0281 v 1.43828 a 1.0333431,1.0819594 0 0 0 -0.1182,-0.0242 0.54871078,0.57452635 0 0 0 -0.0622,-0.004 0.83986345,0.87937706 0 0 0 -0.41807,0.095 0.64949441,0.68005159 0 0 0 -0.25444,0.31203 z"
       style="fill:#ffffff;stroke-width:0.0636586"
       id="path11667" />
    <path
       d="m 188.52326,178.33432 a 1.2398873,1.298221 0 0 1 -0.34341,0.19997 1.0899561,1.1412359 0 0 1 -0.36643,0.0652 q -0.54933,0 -0.8803,-0.54716 -0.33097,-0.54717 -0.33034,-1.43306 0,-0.91847 0.31915,-1.45196 0.31914,-0.53348 0.89149,-0.53348 a 1.0750252,1.1256027 0 0 1 0.38385,0.0652 0.98170703,1.027894 0 0 1 0.31106,0.19999 v 1.14317 a 0.89585436,0.93800219 0 0 0 -0.2812,-0.2208 0.73721346,0.77189763 0 0 0 -0.32163,-0.0808 0.33221266,0.34784248 0 0 0 -0.31106,0.21757 c -0.0703,0.14525 -0.10514,0.35761 -0.10514,0.63836 0,0.28075 0.0355,0.48789 0.107,0.63511 0.0716,0.14721 0.1742,0.22081 0.31106,0.22081 a 0.75338861,0.78883377 0 0 0 0.33035,-0.0808 0.94064705,0.98490228 0 0 0 0.28555,-0.22083 z"
       style="fill:#ffffff;stroke-width:0.0636586"
       id="path11669" />
    <path
       d="m 191.03414,178.38381 a 1.8452111,1.932024 0 0 1 -0.40873,0.16807 1.705856,1.7861124 0 0 1 -0.43113,0.0561 q -0.60283,0 -0.95869,-0.54716 -0.35585,-0.54716 -0.35461,-1.49431 0,-0.87611 0.32849,-1.40632 0.32847,-0.53024 0.88651,-0.53024 a 0.87781283,0.91911187 0 0 1 0.76833,0.41755 q 0.27248,0.41818 0.27248,1.16859 0,0.19541 -0.018,0.39081 a 3.1896146,3.3396785 0 0 1 -0.0491,0.35762 h -1.3444 q 0.0398,0.30877 0.1717,0.44555 0.13189,0.1368 0.39132,0.1368 a 1.2392652,1.2975696 0 0 0 0.31106,-0.0423 2.6216183,2.7449593 0 0 0 0.43548,-0.18239 z m -0.62585,-2.37171 a 0.65073862,0.68135436 0 0 0 -0.0871,-0.38236 0.27559965,0.28856595 0 0 0 -0.24325,-0.1368 0.29737387,0.31136461 0 0 0 -0.27,0.17589 q -0.0964,0.17456 -0.10078,0.51199 h 0.69242 a 0.21960874,0.22994081 0 0 0 0.007,-0.0456 q 0.002,-0.0312 0.002,-0.1231 z"
       style="fill:#ffffff;stroke-width:0.0636586"
       id="path11671" />
  </g>
</svg>
