<?xml version="1.0" encoding="UTF-8" standalone="no"?>
<svg
   xmlns:dc="http://purl.org/dc/elements/1.1/"
   xmlns:cc="http://creativecommons.org/ns#"
   xmlns:rdf="http://www.w3.org/1999/02/22-rdf-syntax-ns#"
   xmlns:svg="http://www.w3.org/2000/svg"
   xmlns="http://www.w3.org/2000/svg"
   xmlns:sodipodi="http://sodipodi.sourceforge.net/DTD/sodipodi-0.dtd"
   xmlns:inkscape="http://www.inkscape.org/namespaces/inkscape"
   id="Calque_1"
   data-name="Calque 1"
   viewBox="0 0 1000 883.48"
   version="1.1"
   sodipodi:docname="DiscordHOS.svg"
   inkscape:version="0.92.5 (2060ec1f9f, 2020-04-08)">
  <metadata
     id="metadata87">
    <rdf:RDF>
      <cc:Work
         rdf:about="">
        <dc:format>image/svg+xml</dc:format>
        <dc:type
           rdf:resource="http://purl.org/dc/dcmitype/StillImage" />
        <dc:title />
      </cc:Work>
    </rdf:RDF>
  </metadata>
  <defs
     id="defs85">
    <clipPath
       id="clip2">
      <path
         inkscape:connector-curvature="0"
         d="m 254,313 h 94 v 127.03906 h -94 z m 0,0"
         id="path5" />
    </clipPath>
    <clipPath
       id="clip1">
      <path
         inkscape:connector-curvature="0"
         d="M 355,313 H 456 V 440.03906 H 355 Z m 0,0"
         id="path2" />
    </clipPath>
  </defs>
  <sodipodi:namedview
     pagecolor="#ffffff"
     bordercolor="#666666"
     borderopacity="1"
     objecttolerance="10"
     gridtolerance="10"
     guidetolerance="10"
     inkscape:pageopacity="0"
     inkscape:pageshadow="2"
     inkscape:window-width="3840"
     inkscape:window-height="2109"
     id="namedview83"
     showgrid="false"
     inkscape:zoom="0.75554491"
     inkscape:cx="432.82602"
     inkscape:cy="77.73309"
     inkscape:window-x="3840"
     inkscape:window-y="0"
     inkscape:window-maximized="1"
     inkscape:current-layer="Calque_1" />
  <rect
     width="1000"
     height="883.48"
     transform="translate(1000 883.48) rotate(180)"
     style="fill:none"
     id="rect2" />
  <path
     d="M 517.76402,122.46979 H 101.68029 a 5.2900677,5.2461896 0 0 0 -5.267312,5.26875 v 408.78535 a 5.2900677,5.2461896 0 0 0 5.267312,5.22363 h 416.08373 a 5.2900677,5.2461896 0 0 0 5.26732,-5.22363 V 127.73854 a 5.2900677,5.2461896 0 0 0 -5.26732,-5.26875 z M 369.38047,258.43072 c 5.79063,-7.89749 30.9668,-27.50583 44.36831,1.60206 1.934,4.2308 2.2753,6.39697 -0.62571,5.83286 -5.06254,-0.9477 -20.47768,-5.64107 -43.75398,-0.56411 -4.58472,0.98155 -3.01477,-2.73027 0.0114,-6.87081 z m 30.71652,149.22871 c 2.37769,-0.89129 3.70874,-0.71078 4.5506,0.65436 0.75085,1.60206 0.32992,2.82053 -1.28555,4.039 -9.53349,7.10774 -29.48786,17.73551 -59.63556,17.73551 -17.06473,0 -34.47076,-5.55081 -46.74599,-10.62777 -1.42206,-0.5641 -2.84412,-1.12821 -4.17517,-1.73745 -2.98064,-1.36513 -5.54035,-2.59488 -7.53124,-3.57643 -0.43231,-0.23692 -0.76222,-0.37231 -1.13765,-0.56411 -0.37542,-0.19179 -0.71672,-0.38359 -1.00113,-0.51897 -2.2753,-1.2636 -2.17291,-3.52003 -0.85324,-4.65952 a 3.4129469,3.3846385 0 0 1 3.23093,-0.60924 h 0.091 c 2.60522,0.71078 5.31282,1.41027 8.05455,2.07591 l 1.99089,0.41744 c 17.12162,3.85849 35.69942,6.20517 47.64474,6.20517 1.95675,0 29.69264,1.27488 56.75731,-8.8339 z M 109.16602,139.91196 a 4.948773,4.9077258 0 0 1 4.92602,-4.88516 h 186.57443 c 0.1934,0.50769 0.32992,1.02667 0.52332,1.54565 0.1934,0.51898 0.32992,1.12821 0.52332,1.69232 0.1934,0.5641 0.37542,1.12821 0.52332,1.64719 0.52332,1.64719 0.98975,3.29438 1.46756,4.94157 8.29347,29.18686 11.18309,58.85886 12.88957,83.35237 1.00113,14.29445 1.61546,26.74992 2.61659,36.2946 0.091,0.65436 0.13652,1.41027 0.22753,2.06463 3.65185,27.31403 14.98284,53.49985 18.25927,60.60759 6.67799,12.92932 8.29346,23.36529 4.55059,30.9356 -5.26731,10.85341 -20.14776,12.78265 -21.85424,12.97445 -4.41407,0.46256 -7.2582,1.8277 -8.72576,4.039 a 6.018163,5.9682458 0 0 0 -0.85324,3.85849 48.987164,48.580844 0 0 0 2.2753,11.56418 c 0.89874,3.23797 1.85437,6.67902 1.61546,8.41647 -1.04664,5.64106 -4.69849,5.96824 -8.86229,5.87798 h -0.95562 a 117.84906,116.87157 0 0 1 -19.05562,-1.88411 329.73618,327.0012 0 0 1 -43.09414,-10.71802 3.1057817,3.080021 0 0 0 -3.65186,1.54565 3.0147698,2.989764 0 0 0 1.13765,3.81336 c 14.93733,9.35288 34.65279,18.435 44.60722,22.80118 3.89076,1.69232 6.31395,2.68515 6.35946,2.73027 4.7895,2.15489 7.34921,5.12209 7.24682,8.17955 -0.10239,3.05745 -2.98064,6.29542 -6.91691,7.75082 -5.26731,1.88411 -7.48573,4.51285 -8.24795,6.96107 l -0.1934,3.20413 c 0.10239,0.41744 0.14789,0.78975 0.2389,1.12821 4.78951,16.26883 4.83501,20.68014 4.83501,20.78168 a 2.3776863,2.3579648 0 0 0 0,0.56411 23.515204,23.320159 0 0 1 -3.26505,16.0319 28.725636,28.487374 0 0 1 -3.41295,3.99387 7.5539891,7.4913331 0 0 1 -0.85323,0.84616 c 0,0 0,0.0903 -0.10239,0.13539 -0.10239,0.0451 -0.091,0 -0.18203,0.10154 a 20.238775,20.070906 0 0 1 -6.07504,3.8472 C 229.279,514.37708 158.16456,484.76149 119.00668,452.65255 q -2.55971,-2.10975 -4.9829,-4.23079 c -1.70647,-1.50053 -3.31056,-3.01233 -4.88051,-4.51286 v 0 z m 401.11227,384.43852 a 4.9601495,4.9190079 0 0 1 -4.92602,4.88516 H 114.04653 a 4.9601495,4.9190079 0 0 1 -4.92602,-4.88516 v -67.422 c 1.51308,1.41027 3.17405,2.86566 4.92602,4.32106 1.56996,1.32 3.27643,2.64001 4.98291,3.90361 29.90879,22.80118 82.01311,46.07621 125.72158,46.07621 12.13872,0 23.60622,-1.78257 33.75405,-5.87799 a 36.256873,35.956143 0 0 0 8.53237,-5.35901 c 0.52332,-0.47385 0.95562,-0.99282 1.42206,-1.45539 15.59717,7.61544 33.33311,11.51905 52.86655,11.51905 h 1.13764 c 32.51401,0 59.77208,-10.62776 81.01199,-31.58996 45.93826,-45.32031 49.54461,-125.89727 49.82902,-137.17939 h 0.23891 c 9.1922,0 11.51301,-11.80111 12.51414,-17.06986 l 0.1934,-0.89129 c 0.70534,-3.53131 0.2389,-10.80828 -0.23891,-17.81448 -0.1934,-3.29438 -0.43231,-6.4421 -0.47781,-8.60827 0.1934,-4.18567 1.33105,-11.00007 2.55971,-18.2432 1.37655,-8.37134 2.79862,-17.01345 2.79862,-21.86476 0,-0.74462 0,-1.63591 0,-2.53848 0.1934,-5.44927 0.4323,-13.67394 -4.68712,-17.72422 -3.08303,-2.39182 -7.67913,-2.91079 -13.65179,-1.54566 -0.18202,-5.92311 -0.22753,-21.15399 -0.22753,-21.34578 0,-0.1918 -0.28441,-13.82061 -1.13765,-27.68636 a 227.14299,225.25897 0 0 0 -7.4971,-41.0895 c -0.42093,-1.64719 -0.89874,-3.24925 -1.37656,-4.94157 -0.47781,-1.69232 -1.03526,-3.24925 -1.55858,-4.88516 h 44.64135 a 4.948773,4.9077258 0 0 1 4.92602,4.88516 z"
     style="fill:#ffffff;stroke-width:1.1329211"
     id="path4"
     inkscape:connector-curvature="0" />
  <path
     d="m 251.0536,266.99385 c -3.89076,-1.03795 -13.65179,-4.65952 -28.58912,-4.89644 a 100.8412,100.00478 0 0 0 -15.02834,0.90257 c -4.64161,0.60923 -2.78724,-2.9672 0.62571,-6.87082 3.83387,-4.51285 14.92595,-12.54572 25.5971,-11.84623 7.1103,0.47385 14.02721,4.88516 18.44129,16.92319 1.55858,4.37747 1.79748,6.53235 -1.04664,5.78773 z"
     style="fill:#ffffff;stroke-width:1.1329211"
     id="path6"
     inkscape:connector-curvature="0" />
  <g
     id="g913"
     transform="matrix(4.8972745,0,0,4.3536174,-4230.3265,6779.942)"
     style="fill:#ffffff">
    <path
       id="path4-6"
       d="m 980.76531,-1414.3824 c -6.16,0 -11.17,5.6 -11.17,12.48 0,6.88 5,12.47 11.17,12.47 6.17,0 11.16,-5.59 11.16,-12.47 0,-6.88 -5.01,-12.48 -11.16,-12.48 z m 0,21 c -4,0 -7.17,-3.8 -7.17,-8.47 0,-4.67 3.21,-8.48 7.17,-8.48 3.96,0 7.16,3.8 7.16,8.48 0,4.68 -3.21,8.42 -7.16,8.42 z"
       inkscape:connector-curvature="0"
       style="fill:#ffffff" />
    <path
       id="path6-7"
       d="m 1057.3653,-1412.0024 a 156.78,156.78 0 0 0 -11.52,-31 2.1,2.1 0 0 0 -0.71,-0.77 87.08,87.08 0 0 0 -15.23,-7.17 c -9.82,-3.57 -14.46,-3.64 -14.65,-3.64 a 2,2 0 0 0 -2,1.72 l -0.6,4.17 a 133.14,133.14 0 0 0 -26.27999,0 l -0.6,-4.17 a 2,2 0 0 0 -2,-1.72 c -0.19,0 -4.83,0 -14.65,3.61 a 87.08,87.08 0 0 0 -15.19,7.2 2.1,2.1 0 0 0 -0.71,0.77 156.72,156.72 0 0 0 -11.52,31 c -5.17,20.88 -6.17,31.33 -6.17,31.76 a 2,2 0 0 0 0.49,1.5 55.2,55.2 0 0 0 18.2,12.74 76.32,76.32 0 0 0 19.79,5.42 2,2 0 0 0 1.92,-1 l 5.4,-9.25 a 105.08,105.08 0 0 0 18.2,1.49 105.08,105.08 0 0 0 18.19999,-1.51 l 5.4,9.27 a 2,2 0 0 0 1.72,1 h 0.2 a 76.32,76.32 0 0 0 19.78,-5.38 55.2,55.2 0 0 0 18.2,-12.74 2,2 0 0 0 0.49,-1.5 c 0.01,-0.47 -0.94,-10.92 -6.16,-31.8 z m -14.06,42.31 a 76.76,76.76 0 0 1 -17.39,4.92 l -4.08,-7 c 4.68,-1.24 14.42,-4.46 21.83,-11.2 a 2.0147022,2.0147022 0 1 0 -2.69,-3 c -9,8.23 -22.46,10.84 -22.6,10.87 h -0.06 a 96.59,96.59 0 0 1 -18.77999,1.76 96.59,96.59 0 0 1 -18.78,-1.7 h -0.06 c -0.14,0 -13.55,-2.64 -22.6,-10.87 a 2.0147022,2.0147022 0 1 0 -2.69,3 c 7.41,6.74 17.15,10 21.83,11.2 l -4.08,7 a 76.08,76.08 0 0 1 -17.39,-4.92 52.24,52.24 0 0 1 -16.15,-11.15 c 0.33,-2.91 1.68,-13.07 6,-30.24 a 156.25,156.25 0 0 1 10.92,-29.64 88.17,88.17 0 0 1 14,-6.52 61.35,61.35 0 0 1 11.58,-3.19 l 0.35,2.39 c -4,1 -13.85,3.86 -21.65,9.53 a 2.0001562,2.0001562 0 1 0 2.36,3.23 c 8.82,-6.41 21,-9.06 21.86,-9.25 a 118.4,118.4 0 0 1 14.5,-0.84 117.64,117.64 0 0 1 14.50999,0.84 c 0.91,0.19 13,2.83 21.86,9.25 a 2.0001562,2.0001562 0 1 0 2.36,-3.23 c -7.8,-5.67 -17.61,-8.52 -21.65,-9.53 l 0.35,-2.39 a 61.75,61.75 0 0 1 11.57,3.19 88.17,88.17 0 0 1 14,6.52 156.25,156.25 0 0 1 11,29.64 c 4.29,17.17 5.64,27.33 6,30.24 a 52.24,52.24 0 0 1 -16.23,11.09 z"
       inkscape:connector-curvature="0"
       style="fill:#ffffff" />
    <path
       id="path8-5"
       d="m 1018.3053,-1414.3824 c -6.15,0 -11.16,5.6 -11.16,12.48 0,6.88 5,12.47 11.16,12.47 6.16,0 11.17,-5.59 11.17,-12.47 0,-6.88 -5.01,-12.48 -11.17,-12.48 z m 0,21 c -4,0 -7.16,-3.8 -7.16,-8.47 0,-4.67 3.21,-8.48 7.16,-8.48 3.95,0 7.17,3.8 7.17,8.48 0,4.68 -3.21,8.42 -7.17,8.42 z"
       inkscape:connector-curvature="0"
       style="fill:#ffffff" />
  </g>
</svg>
