<?xml version="1.0" encoding="UTF-8" standalone="no"?>
<svg
   id="Calque_1"
   data-name="Calque 1"
   viewBox="0 0 1000 883.48"
   version="1.1"
   sodipodi:docname="DiscordHOS.svg"
   inkscape:version="1.1.1 (3bf5ae0d25, 2021-09-20, custom)"
   xmlns:inkscape="http://www.inkscape.org/namespaces/inkscape"
   xmlns:sodipodi="http://sodipodi.sourceforge.net/DTD/sodipodi-0.dtd"
   xmlns="http://www.w3.org/2000/svg"
   xmlns:svg="http://www.w3.org/2000/svg"
   xmlns:rdf="http://www.w3.org/1999/02/22-rdf-syntax-ns#"
   xmlns:cc="http://creativecommons.org/ns#"
   xmlns:dc="http://purl.org/dc/elements/1.1/">
  <metadata
     id="metadata87">
    <rdf:RDF>
      <cc:Work
         rdf:about="">
        <dc:format>image/svg+xml</dc:format>
        <dc:type
           rdf:resource="http://purl.org/dc/dcmitype/StillImage" />
      </cc:Work>
    </rdf:RDF>
  </metadata>
  <defs
     id="defs85">
    <clipPath
       id="clip2">
      <path
         inkscape:connector-curvature="0"
         d="m 254,313 h 94 v 127.03906 h -94 z m 0,0"
         id="path5" />
    </clipPath>
    <clipPath
       id="clip1">
      <path
         inkscape:connector-curvature="0"
         d="M 355,313 H 456 V 440.03906 H 355 Z m 0,0"
         id="path2" />
    </clipPath>
  </defs>
  <sodipodi:namedview
     pagecolor="#2bffff"
     bordercolor="#666666"
     borderopacity="1"
     objecttolerance="10"
     gridtolerance="10"
     guidetolerance="10"
     inkscape:pageopacity="0"
     inkscape:pageshadow="2"
     inkscape:window-width="1920"
     inkscape:window-height="1006"
     id="namedview83"
     showgrid="false"
     inkscape:zoom="0.26712546"
     inkscape:cx="172.20373"
     inkscape:cy="335.04856"
     inkscape:window-x="0"
     inkscape:window-y="0"
     inkscape:window-maximized="1"
     inkscape:current-layer="g1396"
     inkscape:pagecheckerboard="true" />
  <g
     id="g1396"
     transform="matrix(4.4389561,0,0,4.4389561,74.040755,-33.08585)">
    <g
       id="g7248"
       transform="translate(-13.189555,-8.9671475)"
       style="stroke:#fffffd;stroke-width:2;stroke-miterlimit:4;stroke-dasharray:none;stroke-opacity:1">
      <path
         id="path5335"
         style="fill:none;stroke:#fffffd;stroke-width:3.37917286;stroke-miterlimit:4;stroke-dasharray:none;stroke-opacity:1"
         d="m 81.570312,22.480469 c -6.475364,0.174711 -10.80329,8.19366 -6.920213,13.540636 5.084082,10.423955 10.168163,20.847909 15.252245,31.271864 7.07701,-0.864428 14.327256,0.352696 20.923826,2.980469 -7.29136,-14.79755 -14.347375,-29.721901 -21.786658,-44.439749 -1.649238,-2.366574 -4.628677,-3.596162 -7.4692,-3.35322 z m 29.255858,47.792969 c 3.61263,2.083984 7.22526,4.167969 10.83789,6.251953 -3.29812,-2.575029 -6.95764,-4.686053 -10.83789,-6.251953 z m 10.83789,6.251953 c 17.11084,12.795993 22.44166,38.350229 11.90468,56.924279 -9.63127,18.5542 -33.10117,28.10649 -52.950364,21.52722 -18.623965,-5.51048 -32.315103,-24.23936 -31.567596,-43.69564 -2.802606,-5.27428 -4.870773,-11.00956 -8.214277,-15.94599 -5.349543,-5.797482 -16.295088,-0.459412 -15.022794,7.32498 2.308473,6.67752 6.059217,12.83124 8.970031,19.28938 5.101179,9.84022 9.112274,20.30871 15.382901,29.48374 15.104652,20.62881 45.017367,26.59621 67.859979,16.23498 23.40875,-9.54931 39.76324,-35.4513 35.46285,-60.81822 -1.9817,-11.910535 -8.78554,-22.124406 -13.64966,-32.979994 -6.66212,-13.590599 -13.21701,-27.237133 -19.94605,-40.792827 -4.11161,-6.861138 -15.8392,-3.38564 -16.08176,4.436105 0.2495,5.00124 3.68674,9.134116 5.5025,13.69201 4.11652,8.439992 8.23304,16.879985 12.34956,25.319977 z M 49.050781,111.28125 c 0.380108,-2.79132 2.147157,-12.706087 1.437797,-10.68466 -0.905062,3.48682 -1.388939,7.08263 -1.437797,10.68466 z M 50.902344,99.107422 C 52.083087,91.795194 58.976116,85.686352 61.008013,79.90752 56.01883,69.941488 51.432208,59.744262 46.186434,49.925531 c -4.76756,-6.346213 -16.126243,-1.919768 -15.62289,5.912982 1.087384,5.370465 4.451736,10.014302 6.574884,15.049857 4.587972,9.406351 9.175944,18.812701 13.763916,28.219052 z M 61.535156,80.988281 c 1.811849,-1.607422 3.623698,-3.214843 5.435547,-4.822265 -1.937883,1.45741 -3.757625,3.071833 -5.435547,4.822265 z m 5.435547,-4.822265 C 70.776228,71.819211 80.118295,70.751657 82.185731,67.438778 75.759256,54.332454 69.439833,41.170286 62.946572,28.0988 58.835289,21.236588 47.107925,24.71479 46.866807,32.536453 c 0.249152,5.001445 3.686593,9.134398 5.50238,13.692401 4.867172,9.979054 9.734344,19.958108 14.601516,29.937162 z m 15.742188,-7.646485 c 2.396484,-0.408854 4.792969,-0.817708 7.189453,-1.226562 -2.396484,0.408854 -4.792969,0.817708 -7.189453,1.226562 2.396484,-0.408854 4.792969,-0.817708 7.189453,-1.226562 -2.42441,0.213448 -4.831411,0.624097 -7.189453,1.226562 z"
         sodipodi:nodetypes="sccccccscccccccscccccccccsccccccccccccccccccccccccc" />
      <path
         d="m 84.2189,108.232 c 7.154653,1.29943 14.448958,1.41653 21.6961,1.152 -0.12128,-8.69769 -0.42705,-17.429039 0,-26.112 4.41323,-5.074229 8.54107,0.887406 7.2,5.640221 -0.0685,17.736579 0.24388,35.480289 -0.48,53.207779 -2.85788,6.26299 -8.85312,1.06853 -6.94751,-4.00776 0.10784,-7.14408 0.21567,-14.28816 0.32351,-21.43224 -7.274866,0.43779 -14.588322,0.17016 -21.7921,-0.96 -0.07272,9.08658 0.586859,18.1676 1.104,27.222 -4.86388,6.6025 -9.142037,-1.17221 -7.794,-6.558 -1.254148,-16.95508 -0.38823,-33.96617 -0.036,-50.934 2.468387,-5.586122 9.01124,-1.79338 7.049885,3.348898 -0.107962,6.4777 -0.215923,12.955402 -0.323885,19.433102 z"
         fill="url(#paint1_diamond_5:4)"
         id="path6"
         style="fill:none;stroke:#fffffd;stroke-width:3.37917286;stroke-miterlimit:4;stroke-dasharray:none;stroke-opacity:1" />
    </g>
    <g
       id="g7271"
       transform="matrix(1.8225881,0,0,1.8225881,-117.12433,-136.04261)">
      <path
         id="path4-6"
         d="m 119.94031,160.15791 c -3.22117,0 -5.84099,2.60326 -5.84099,5.80155 0,3.19828 2.61459,5.79689 5.84099,5.79689 3.2264,0 5.83576,-2.59861 5.83576,-5.79689 0,-3.19829 -2.61981,-5.80155 -5.83576,-5.80155 z m 0,9.76222 c -2.09167,0 -3.74932,-1.7665 -3.74932,-3.93743 0,-2.17093 1.67857,-3.94208 3.74932,-3.94208 2.07076,0 3.74409,1.7665 3.74409,3.94208 0,2.17558 -1.67856,3.91418 -3.74409,3.91418 z"
         inkscape:connector-curvature="0"
         style="fill:#ffffff;stroke-width:0.49304" />
      <path
         id="path6-7"
         d="m 159.9958,161.26429 a 81.983026,72.881913 0 0 0 -6.02401,-14.41088 1.098127,0.97622156 0 0 0 -0.37127,-0.35795 45.535668,40.480654 0 0 0 -7.96404,-3.3331 c -5.13505,-1.65958 -7.56139,-1.69212 -7.66074,-1.69212 a 1.0458353,0.92973483 0 0 0 -1.04584,0.79958 l -0.31375,1.93849 a 69.621253,61.892448 0 0 0 -13.74227,0 l -0.31375,-1.93849 a 1.0458353,0.92973483 0 0 0 -1.04583,-0.79958 c -0.0994,0 -2.5257,0 -7.66075,1.67817 a 45.535668,40.480654 0 0 0 -7.94312,3.34705 1.098127,0.97622156 0 0 0 -0.37127,0.35795 81.951651,72.854022 0 0 0 -6.02401,14.41088 c -2.703484,9.70644 -3.226402,14.5643 -3.226402,14.76419 a 1.0458353,0.92973483 0 0 0 0.25623,0.6973 28.865053,25.660681 0 0 0 9.517102,5.92241 39.909072,35.47868 0 0 0 10.34854,2.51959 1.0458353,0.92973483 0 0 0 1.004,-0.46487 l 2.82376,-4.30002 a 54.948183,48.848267 0 0 0 9.5171,0.69265 54.948183,48.848267 0 0 0 9.51709,-0.70195 l 2.82376,4.30932 a 1.0458353,0.92973483 0 0 0 0.89941,0.46487 h 0.10459 a 39.909072,35.47868 0 0 0 10.34331,-2.50099 28.865053,25.660681 0 0 0 9.5171,-5.92241 1.0458353,0.92973483 0 0 0 0.25623,-0.6973 c 0.005,-0.21849 -0.49154,-5.07635 -3.22117,-14.78279 z m -7.35222,19.66854 a 40.139158,35.683223 0 0 1 -9.09354,2.28715 l -2.13351,-3.25407 c 2.44726,-0.57643 7.54048,-2.07331 11.41529,-5.20651 a 1.0535265,0.93657223 0 1 0 -1.40664,-1.39461 c -4.70626,3.82586 -11.74473,5.03917 -11.81794,5.05311 h -0.0314 a 50.508613,44.901545 0 0 1 -9.82039,0.81817 50.508613,44.901545 0 0 1 -9.82039,-0.79028 h -0.0314 c -0.0732,0 -7.08553,-1.22724 -11.81794,-5.0531 a 1.0535233,0.93656942 0 1 0 -1.40665,1.3946 c 3.87482,3.1332 8.96804,4.64867 11.41529,5.20651 l -2.1335,3.25407 a 39.783571,35.367111 0 0 1 -9.09354,-2.28714 27.317217,24.284674 0 0 1 -8.445118,-5.18328 c 0.172563,-1.35276 0.878502,-6.07581 3.137508,-14.05759 a 81.70588,72.635534 0 0 1 5.71026,-13.77867 46.105647,40.98736 0 0 1 7.32085,-3.03093 32.080995,28.519616 0 0 1 6.05538,-1.48292 l 0.18302,1.11102 c -2.09167,0.46487 -7.24241,1.79439 -11.32116,4.43019 a 1.0459169,0.92980747 0 1 0 1.23408,1.50152 c 4.61214,-2.9798 10.98127,-4.2117 11.43098,-4.30002 a 61.913447,55.040302 0 0 1 7.58231,-0.39049 61.51603,54.687003 0 0 1 7.58753,0.39049 c 0.47585,0.0883 6.79792,1.31557 11.43098,4.30002 a 1.0459169,0.92980747 0 1 0 1.23408,-1.50152 c -4.07876,-2.6358 -9.20858,-3.96067 -11.32117,-4.43019 l 0.18303,-1.11102 a 32.290164,28.705563 0 0 1 6.05015,1.48292 46.105647,40.98736 0 0 1 7.32085,3.03093 81.70588,72.635534 0 0 1 5.75209,13.77867 c 2.24332,7.98178 2.94926,12.70483 3.13751,14.05759 a 27.317217,24.284674 0 0 1 -8.48695,5.15538 z"
         inkscape:connector-curvature="0"
         style="fill:#ffffff;stroke-width:0.49304" />
      <path
         id="path8-5"
         d="m 139.57064,160.15791 c -3.21595,0 -5.83577,2.60326 -5.83577,5.80155 0,3.19828 2.61459,5.79689 5.83577,5.79689 3.22117,0 5.84098,-2.59861 5.84098,-5.79689 0,-3.19829 -2.61981,-5.80155 -5.84098,-5.80155 z m 0,9.76222 c -2.09167,0 -3.74409,-1.7665 -3.74409,-3.93743 0,-2.17093 1.67856,-3.94208 3.74409,-3.94208 2.06552,0 3.74931,1.7665 3.74931,3.94208 0,2.17558 -1.67856,3.91418 -3.74931,3.91418 z"
         inkscape:connector-curvature="0"
         style="fill:#ffffff;stroke-width:0.49304" />
    </g>
  </g>
</svg>
