<?xml version="1.0" encoding="UTF-8" standalone="no"?>
<svg
   viewBox="0 0 48 48"
   width="48"
   height="48"
   version="1.1"
   id="svg12"
   sodipodi:docname="Google_G_Logo.svg"
   inkscape:version="1.1.1 (3bf5ae0d25, 2021-09-20, custom)"
   xmlns:inkscape="http://www.inkscape.org/namespaces/inkscape"
   xmlns:sodipodi="http://sodipodi.sourceforge.net/DTD/sodipodi-0.dtd"
   xmlns="http://www.w3.org/2000/svg"
   xmlns:svg="http://www.w3.org/2000/svg">
  <defs
     id="defs16" />
  <sodipodi:namedview
     id="namedview14"
     pagecolor="#ffffff"
     bordercolor="#666666"
     borderopacity="1.0"
     inkscape:pageshadow="2"
     inkscape:pageopacity="0.0"
     inkscape:pagecheckerboard="0"
     showgrid="false"
     inkscape:zoom="9.2807765"
     inkscape:cx="20.095301"
     inkscape:cy="21.496046"
     inkscape:window-width="1920"
     inkscape:window-height="1006"
     inkscape:window-x="0"
     inkscape:window-y="0"
     inkscape:window-maximized="1"
     inkscape:current-layer="g10" />
  <g
     transform="translate(27.009001,-39.238998)"
     id="g10">
    <g
       id="g903"
       transform="matrix(0.98967165,0,0,0.9643109,-0.76926503,2.7097652)">
      <ellipse
         style="fill:#ffffff;fill-opacity:1;stroke:#000000;stroke-width:0.273013;stroke-miterlimit:4;stroke-dasharray:none;stroke-opacity:0.356627"
         id="path1448"
         cx="-2.2631102"
         cy="62.769417"
         rx="19.269272"
         ry="18.757544" />
      <path
         fill="#4285f4"
         d="m 9.688876,62.881218 c 0,-0.775874 -0.07052,-1.512463 -0.191401,-2.22941 H -1.8858379 v 4.429356 h 6.517702 C 4.3397259,66.5347 3.483459,67.762349 2.2141692,68.59715 v 2.946356 H 6.1026285 C 8.379291,69.490878 9.688876,66.465952 9.688876,62.881218 Z"
         id="path2"
         style="stroke:#000000;stroke-width:0.198933;stroke-miterlimit:4;stroke-dasharray:none;stroke-opacity:0" />
      <path
         fill="#34a853"
         d="m -1.8858379,74.401472 c 3.2638875,0 5.9938681,-1.060688 7.9884664,-2.857966 L 2.2141692,68.59715 c -1.0879628,0.707125 -2.4680641,1.139258 -4.1000071,1.139258 -3.153078,0 -5.822616,-2.072271 -6.7796201,-4.87131 h -4.009344 v 3.034747 c 1.984525,3.849906 6.0643841,6.501627 10.7889641,6.501627 z"
         id="path4"
         style="stroke:#000000;stroke-width:0.198933;stroke-miterlimit:4;stroke-dasharray:none;stroke-opacity:0" />
      <path
         fill="#fbbc05"
         d="m -8.665458,64.865098 c -0.251843,-0.707126 -0.382802,-1.463357 -0.382802,-2.249052 0,-0.785696 0.141032,-1.541927 0.382802,-2.249053 v -3.034747 h -4.009344 c -0.826046,1.591033 -1.299511,3.378489 -1.299511,5.2838 0,1.90531 0.473465,3.692767 1.299511,5.283799 z"
         id="path6"
         style="stroke:#000000;stroke-width:0.198933;stroke-miterlimit:4;stroke-dasharray:none;stroke-opacity:0" />
      <path
         fill="#ea4335"
         d="m -1.8858379,55.495684 c 1.783049,0 3.3746986,0.599092 4.6339147,1.767814 L 6.193292,53.904651 C 4.1080302,51.99934 1.3780496,50.830619 -1.8858379,50.830619 c -4.72458,0 -8.8044391,2.651721 -10.7889641,6.501627 l 4.009344,3.034747 c 0.9570041,-2.799039 3.6265421,-4.871309 6.7796201,-4.871309 z"
         id="path8"
         style="stroke:#000000;stroke-width:0.198933;stroke-miterlimit:4;stroke-dasharray:none;stroke-opacity:0" />
    </g>
  </g>
</svg>
