<?xml version="1.0" encoding="UTF-8" standalone="no"?>
<!-- Created with Inkscape (http://www.inkscape.org/) -->

<svg
   width="210mm"
   height="210mm"
   viewBox="0 0 210 210"
   version="1.1"
   id="svg5"
   inkscape:version="1.1.1 (3bf5ae0d25, 2021-09-20, custom)"
   sodipodi:docname="home.svg"
   inkscape:export-filename="/Users/paulw/Desktop/dessin2.png"
   inkscape:export-xdpi="96"
   inkscape:export-ydpi="96"
   xmlns:inkscape="http://www.inkscape.org/namespaces/inkscape"
   xmlns:sodipodi="http://sodipodi.sourceforge.net/DTD/sodipodi-0.dtd"
   xmlns:xlink="http://www.w3.org/1999/xlink"
   xmlns="http://www.w3.org/2000/svg"
   xmlns:svg="http://www.w3.org/2000/svg">
  <sodipodi:namedview
     id="namedview7"
     pagecolor="#ffffff"
     bordercolor="#666666"
     borderopacity="1.0"
     inkscape:pageshadow="2"
     inkscape:pageopacity="0.0"
     inkscape:pagecheckerboard="0"
     inkscape:document-units="mm"
     showgrid="false"
     height="210mm"
     inkscape:zoom="0.48315492"
     inkscape:cx="468.79374"
     inkscape:cy="689.21993"
     inkscape:window-width="1532"
     inkscape:window-height="945"
     inkscape:window-x="2067"
     inkscape:window-y="51"
     inkscape:window-maximized="0"
     inkscape:current-layer="layer1" />
  <defs
     id="defs2">
    <rect
       x="53.031991"
       y="487.80659"
       width="441.74589"
       height="292.05579"
       id="rect2170" />
    <rect
       x="8.5157648"
       y="516.73688"
       width="486.26211"
       height="263.1255"
       id="rect1406" />
    <radialGradient
       id="paint0_diamond_6:10"
       cx="0"
       cy="0"
       r="1"
       gradientUnits="userSpaceOnUse"
       gradientTransform="matrix(0,78,-321.454,0,317,121)">
      <stop
         stop-color="#00FFE0"
         id="stop12" />
      <stop
         offset="0.0001"
         stop-color="#00FFE0"
         id="stop14" />
      <stop
         offset="1"
         stop-color="#26BD00"
         stop-opacity="0.74"
         id="stop16" />
    </radialGradient>
    <linearGradient
       id="paint1_linear_6:10"
       x1="51.9053"
       y1="25.315901"
       x2="120.73"
       y2="166.427"
       gradientUnits="userSpaceOnUse">
      <stop
         stop-color="#26BD00"
         id="stop19" />
      <stop
         offset="1"
         stop-color="#29DBD0"
         stop-opacity="0.64"
         id="stop21" />
    </linearGradient>
    <radialGradient
       id="paint2_diamond_6:10"
       cx="0"
       cy="0"
       r="1"
       gradientUnits="userSpaceOnUse"
       gradientTransform="matrix(0,45,-45,0,94,110)">
      <stop
         stop-color="#00FFE0"
         id="stop24" />
      <stop
         offset="1"
         stop-color="#56935C"
         stop-opacity="0.67"
         id="stop26" />
    </radialGradient>
    <linearGradient
       id="linearGradient1031"
       inkscape:swatch="solid">
      <stop
         style="stop-color:#000000;stop-opacity:1;"
         offset="0"
         id="stop1029" />
    </linearGradient>
    <style
       id="style2">.cls-1{isolation:isolate;}.cls-2{opacity:0.2;}.cls-2,.cls-3,.cls-5{mix-blend-mode:multiply;}.cls-4{fill:#fff;}.cls-5{opacity:0.12;}.cls-6{fill:url(#linear-gradient);}.cls-7{fill:url(#linear-gradient-2);}.cls-8{fill:url(#linear-gradient-3);}.cls-9{fill:url(#linear-gradient-4);}.cls-10{fill:url(#linear-gradient-5);}.cls-11{fill:none;}</style>
    <linearGradient
       id="linear-gradient"
       x1="45.2"
       y1="-1.42"
       x2="45.2"
       y2="57.8"
       gradientUnits="userSpaceOnUse">
      <stop
         offset="0"
         stop-color="#ffb900"
         id="stop4" />
      <stop
         offset="0.17"
         stop-color="#ef8400"
         id="stop6" />
      <stop
         offset="0.31"
         stop-color="#e25c01"
         id="stop8" />
      <stop
         offset="0.43"
         stop-color="#db4401"
         id="stop10" />
      <stop
         offset="0.5"
         stop-color="#d83b01"
         id="stop12-1" />
    </linearGradient>
    <linearGradient
       id="linear-gradient-2"
       x1="34.52"
       y1="0.67"
       x2="3.16"
       y2="45.45"
       gradientUnits="userSpaceOnUse">
      <stop
         offset="0"
         stop-color="#800600"
         id="stop15" />
      <stop
         offset="0.6"
         stop-color="#c72127"
         id="stop17" />
      <stop
         offset="0.73"
         stop-color="#c13959"
         id="stop19-7" />
      <stop
         offset="0.85"
         stop-color="#bc4b81"
         id="stop21-5" />
      <stop
         offset="0.94"
         stop-color="#b95799"
         id="stop23" />
      <stop
         offset="1"
         stop-color="#b85ba2"
         id="stop25" />
    </linearGradient>
    <linearGradient
       id="linear-gradient-3"
       x1="18.5"
       y1="55.63"
       x2="59.44"
       y2="55.63"
       gradientUnits="userSpaceOnUse">
      <stop
         offset="0"
         stop-color="#f32b44"
         id="stop28" />
      <stop
         offset="0.6"
         stop-color="#a4070a"
         id="stop30" />
    </linearGradient>
    <linearGradient
       id="linear-gradient-4"
       x1="35.16"
       y1="-0.24"
       x2="28.52"
       y2="9.24"
       gradientUnits="userSpaceOnUse">
      <stop
         offset="0"
         stop-opacity="0.4"
         id="stop33" />
      <stop
         offset="1"
         stop-opacity="0"
         id="stop35" />
    </linearGradient>
    <linearGradient
       id="linear-gradient-5"
       x1="46.32"
       y1="56.55"
       x2="27.99"
       y2="54.95"
       gradientUnits="userSpaceOnUse">
      <stop
         offset="0"
         stop-opacity="0.4"
         id="stop38" />
      <stop
         offset="1"
         stop-opacity="0"
         id="stop40" />
    </linearGradient>
    <linearGradient
       inkscape:collect="always"
       xlink:href="#linearGradient1254"
       id="linearGradient1242"
       x1="16.640018"
       y1="55.625"
       x2="39.100021"
       y2="55.625"
       gradientUnits="userSpaceOnUse"
       gradientTransform="translate(-1.5510808,0.40825448)" />
    <linearGradient
       inkscape:collect="always"
       id="linearGradient1254">
      <stop
         style="stop-color:#ffffff;stop-opacity:1;"
         offset="0"
         id="stop1250" />
      <stop
         style="stop-color:#ffffff;stop-opacity:1"
         offset="1"
         id="stop1252" />
    </linearGradient>
    <linearGradient
       inkscape:collect="always"
       xlink:href="#linearGradient1254"
       id="linearGradient1240"
       x1="7.8999891"
       y1="25.380638"
       x2="39.099998"
       y2="25.380638"
       gradientUnits="userSpaceOnUse"
       gradientTransform="translate(-1.5510808,0.40825448)" />
    <linearGradient
       inkscape:collect="always"
       xlink:href="#linearGradient1254"
       id="linearGradient1238"
       x1="34.23357"
       y1="31.997484"
       x2="56.100002"
       y2="31.997484"
       gradientUnits="userSpaceOnUse"
       gradientTransform="translate(-1.5510808,0.40825448)" />
  </defs>
  <g
     inkscape:label="Calque 1"
     inkscape:groupmode="layer"
     id="layer1">
    <g
       id="g1761"
       transform="matrix(0.7264984,0,0,0.70807147,28.763135,30.833901)">
      <rect
         style="fill:none;fill-rule:evenodd;stroke:#000000;stroke-width:0.264583;stroke-opacity:1"
         id="rect31"
         width="209.87483"
         height="210.26205"
         x="0"
         y="-0.38722295"
         ry="36.032578" />
      <g
         id="g128"
         transform="matrix(1.1002416,0,0,0.65867131,3.2305569,37.133781)">
        <rect
           style="fill:#f07850;fill-opacity:1;stroke:#ff0000;stroke-width:1.89341;stroke-miterlimit:4;stroke-dasharray:none;stroke-opacity:1"
           id="rect77-3-6"
           width="59.185589"
           height="101.23045"
           x="61.39048"
           y="3.1402314"
           ry="7.6527591" />
        <path
           d="m 115.00244,45.862972 c 0.37687,-0.40807 0.93735,-0.02632 0.93735,0.618689 v 26.91951 c 0,3.488348 -2.07764,6.318517 -4.63841,6.318517 H 71.101803 c -2.56079,0 -4.638411,-2.830169 -4.638411,-6.318517 V 46.494824 c 0,-0.658178 0.550811,-1.02676 0.937345,-0.618687 2.164592,2.290462 5.034609,5.199611 14.891233,14.953822 2.038968,2.027189 5.479123,6.292187 8.909616,6.265859 3.449817,0.03949 6.957616,-4.317653 8.919284,-6.265859 9.85662,-9.754211 12.71697,-12.676523 14.88157,-14.966987 z m -23.800854,17.00734 c 2.241898,0.05264 5.46946,-3.843764 7.092904,-5.449721 12.82328,-12.676523 13.79928,-13.782263 16.75627,-16.941522 0.56046,-0.592359 0.88903,-1.51381 0.88903,-2.487915 v -2.501078 c 0,-3.488348 -2.07764,-6.318517 -4.63841,-6.318517 H 71.101803 c -2.56079,0 -4.638411,2.830169 -4.638411,6.318517 v 2.501078 c 0,0.974105 0.328554,1.882391 0.889028,2.487915 2.956989,3.146096 3.932985,4.264999 16.756261,16.941522 1.623444,1.605957 4.851004,5.502375 7.092905,5.449721 z"
           id="path2-94"
           style="fill:#ffffff;stroke-width:0.112786" />
      </g>
      <g
         id="g148"
         transform="matrix(1.0939046,0,0,0.6233048,4.0517057,42.658501)">
        <rect
           style="fill:#29b647;fill-opacity:1;stroke:#ff0000;stroke-width:1.8777;stroke-miterlimit:4;stroke-dasharray:none;stroke-opacity:1"
           id="rect77-3-6-0"
           width="59.43922"
           height="99.131882"
           x="61.084663"
           y="107.29964"
           ry="7.4941134" />
        <path
           d="M 108.09998,118.09601 H 73.45136 c -2.519899,0 -4.724811,3.1973 -4.724811,6.85136 v 59.37843 c 0,3.65408 2.204912,6.85137 4.724811,6.85137 h 34.64862 c 2.5199,0 4.72481,-3.19729 4.72481,-6.85137 v -59.37843 c 0,-3.65406 -2.20491,-6.85136 -4.72481,-6.85136 z m -26.773934,62.11898 c 0,0.91352 -0.629975,1.82703 -1.25995,1.82703 h -3.779849 c -0.629975,0 -1.25995,-0.91351 -1.25995,-1.82703 v -5.48108 c 0,-0.91352 0.629975,-1.82703 1.25995,-1.82703 h 3.779849 c 0.629975,0 1.25995,0.91351 1.25995,1.82703 z m 0,-18.27028 c 0,0.9135 -0.629975,1.82702 -1.25995,1.82702 h -3.779849 c -0.629975,0 -1.25995,-0.91352 -1.25995,-1.82702 v -5.48109 c 0,-0.91352 0.629975,-1.82702 1.25995,-1.82702 h 3.779849 c 0.629975,0 1.25995,0.9135 1.25995,1.82702 z m 12.599497,18.27028 c 0,0.91352 -0.629974,1.82703 -1.259948,1.82703 h -3.779853 c -0.629974,0 -1.259948,-0.91351 -1.259948,-1.82703 v -5.48108 c 0,-0.91352 0.629974,-1.82703 1.259948,-1.82703 h 3.779853 c 0.629974,0 1.259948,0.91351 1.259948,1.82703 z m 0,-18.27028 c 0,0.9135 -0.629974,1.82702 -1.259948,1.82702 h -3.779853 c -0.629974,0 -1.259948,-0.91352 -1.259948,-1.82702 v -5.48109 c 0,-0.91352 0.629974,-1.82702 1.259948,-1.82702 h 3.779853 c 0.629974,0 1.259948,0.9135 1.259948,1.82702 z m 12.599497,18.27028 c 0,0.91352 -0.62997,1.82703 -1.25995,1.82703 h -3.77985 c -0.62997,0 -1.25995,-0.91351 -1.25995,-1.82703 v -23.75137 c 0,-0.91352 0.62998,-1.82702 1.25995,-1.82702 h 3.77985 c 0.62998,0 1.25995,0.9135 1.25995,1.82702 z m 0,-36.54058 c 0,0.91352 -0.62997,1.82704 -1.25995,1.82704 H 76.286247 c -0.629975,0 -1.25995,-0.91352 -1.25995,-1.82704 v -14.61623 c 0,-0.9135 0.629975,-1.82702 1.25995,-1.82702 h 28.978843 c 0.62998,0 1.25995,0.91352 1.25995,1.82702 z"
           id="path2"
           style="fill:#ffffff;stroke-width:0.118532" />
      </g>
      <g
         id="g136"
         transform="matrix(1.0939046,0,0,0.6233048,4.0517057,42.658501)">
        <rect
           style="fill:#38a3a5;fill-opacity:1;stroke:#ff0000;stroke-width:1.80876;stroke-miterlimit:4;stroke-dasharray:none;stroke-opacity:1"
           id="rect77-3-4"
           width="55.154453"
           height="99.131882"
           x="2.0295231"
           y="107.29964"
           ry="7.4941134" />
      </g>
      <g
         id="g132"
         transform="matrix(1.1004023,0,0,0.6582383,2.8058202,37.432418)">
        <rect
           style="fill:#7289da;fill-opacity:1;stroke:#ff0000;stroke-width:1.89341;stroke-miterlimit:4;stroke-dasharray:none;stroke-opacity:1"
           id="rect77-3-6-4"
           width="59.185589"
           height="101.23045"
           x="124.5038"
           y="3.0452855"
           ry="7.6527591" />
        <path
           d="m 162.04548,52.082665 c 0,2.37392 -1.21174,4.319754 -2.7466,4.319754 -1.50796,0 -2.74662,-1.945834 -2.74662,-4.319754 0,-2.37393 1.21174,-4.319765 2.74662,-4.319765 1.53486,0 2.7466,1.945835 2.7466,4.319765 z M 149.4703,47.7629 c -1.53488,0 -2.74662,1.945835 -2.74662,4.319765 0,2.37392 1.23867,4.319754 2.74662,4.319754 1.53487,0 2.74661,-1.945834 2.74661,-4.319754 0.0269,-2.37393 -1.21174,-4.319765 -2.74661,-4.319765 z m 28.43561,-24.634295 v 69.816688 c -6.78386,-8.664146 -4.61431,-5.79615 -12.49445,-16.383951 l 1.42718,7.199597 h -30.53595 c -3.04283,0 -5.52017,-3.580331 -5.52017,-8.016846 V 23.128605 c 0,-4.436515 2.47734,-8.016858 5.52017,-8.016858 h 36.08307 c 3.0428,0 5.52015,3.580343 5.52015,8.016858 z m -7.67437,36.893081 c 0,-12.531198 -3.8776,-22.688476 -3.8776,-22.688476 -3.87759,-4.203003 -7.56668,-4.086253 -7.56668,-4.086253 l -0.37699,0.62266 c 4.57769,2.023684 6.70499,4.942428 6.70499,4.942428 -6.39648,-5.066611 -13.91024,-5.067537 -20.11496,-1.128571 -0.99631,0.661584 -1.58872,1.128571 -1.58872,1.128571 0,0 2.235,-3.074406 7.08196,-5.098089 l -0.26927,-0.466999 c 0,0 -3.68907,-0.116731 -7.56667,4.086253 0,0 -3.87757,10.157278 -3.87757,22.688476 0,0 2.26192,5.642925 8.21291,5.915336 0,0 0.99633,-1.751246 1.80415,-3.230081 -3.4198,-1.478846 -4.71231,-4.592177 -4.71231,-4.592177 0.39613,0.400721 1.04933,0.920156 1.10403,0.972911 4.54508,3.678555 11.00119,4.88376 16.80281,1.362097 0.94248,-0.505923 1.99268,-1.245346 3.09672,-2.296095 0,0 -1.3464,3.191169 -4.87393,4.631089 0.80784,1.478834 1.77721,3.152256 1.77721,3.152256 5.95106,-0.272411 8.23992,-5.915336 8.23992,-5.915336 z"
           id="path2-9"
           style="fill:#ffffff;stroke-width:0.126452" />
      </g>
      <g
         id="g124"
         transform="matrix(1.1004824,0,0,0.6585482,2.7326132,37.14663)">
        <rect
           style="fill:#584637;fill-opacity:1;stroke:#ff0000;stroke-width:1.82388;stroke-miterlimit:4;stroke-dasharray:none;stroke-opacity:1"
           id="rect77-3"
           width="54.919102"
           height="101.23045"
           x="2.5827749"
           y="3.1402314"
           ry="7.6527591" />
      </g>
      <g
         transform="matrix(1.324196,0,0,1.3160008,40.700289,-10.108557)"
         id="g10">
        <g
           id="path1448"
           clip-path="none">
          <path
             id="path1288"
             style="color:#000000;fill:#ffffff;stroke-width:0.266709;-inkscape-stroke:none"
             d="M 24,5.9121094 A 19.070251,18.088104 0 0 0 4.9296875,24 19.070251,18.088104 0 0 0 24,42.087891 19.070251,18.088104 0 0 0 43.070312,24 19.070251,18.088104 0 0 0 24,5.9121094 Z m 0.238281,6.8027346 c 3.220512,0 5.916956,1.11709 7.980469,2.945312 l -3.388672,3.115235 c -0.858803,-0.767402 -2.361294,-1.669922 -4.591797,-1.669922 -3.948109,0 -7.167969,3.103097 -7.167969,6.90625 10e-7,3.803153 3.21986,6.90625 7.167969,6.90625 4.568356,0 6.250424,-2.989924 6.560547,-4.761719 h -6.572266 v -0.01172 -4.199219 h 11.164063 c 0.166989,0.710976 0.298828,1.377772 0.298828,2.314454 0,6.443917 -4.568819,11.02539 -11.451172,11.02539 -6.584157,0 -11.927734,-5.055659 -11.927734,-11.285156 0,-6.229497 5.343577,-11.285156 11.927734,-11.285155 z"
             transform="translate(-27.009001,39.238998)" />
          <path
             style="color:#000000;fill:#000000;fill-opacity:0.356627;-inkscape-stroke:none"
             d="m -3.0097656,45.017578 c -10.6005564,0 -19.2031254,8.154946 -19.2031254,18.220703 0,10.065758 8.602568,18.222657 19.2031254,18.222656 10.600557,10e-7 19.2050786,-8.156898 19.2050776,-18.222656 0,-10.065757 -8.604521,-18.220703 -19.2050776,-18.220703 z m 0,0.267578 c 10.4638399,0 18.9374996,8.039335 18.9374996,17.953125 1e-6,9.913791 -8.4736593,17.955078 -18.9374996,17.955078 -10.4638404,0 -18.9355474,-8.041287 -18.9355464,-17.955078 0,-9.91379 8.471706,-17.953125 18.9355464,-17.953125 z"
             id="path1290" />
        </g>
        <g
           id="google"
           transform="matrix(1.1927821,0,0,1.128532,-17.119613,49.696614)" />
      </g>
      <g
         id="g144"
         transform="matrix(1.0939046,0,0,0.6233048,4.0517057,42.658501)">
        <rect
           style="fill:#d473d4;fill-opacity:1;stroke:#ff0000;stroke-width:1.8777;stroke-miterlimit:4;stroke-dasharray:none;stroke-opacity:1"
           id="rect77-3-6-4-4"
           width="59.43922"
           height="99.131882"
           x="124.49081"
           y="107.2067"
           ry="7.4941134" />
        <path
           d="m 171.85946,115.35328 -27.90097,14.18814 a 2.7903569,4.8049536 0 0 0 -1.95411,4.58122 v 39.25196 a 12.120612,20.871515 0 0 0 -2.79036,-0.58861 c -4.62153,0 -8.37108,4.30343 -8.37108,9.60992 0,5.30646 3.74955,9.60991 8.37108,9.60991 4.62154,0 8.37108,-4.30345 8.37108,-9.60991 v -35.08817 l 22.32285,-11.26162 v 27.72008 a 12.068295,20.781424 0 0 0 -2.79037,-0.5901 c -4.62151,0 -8.37105,4.30342 -8.37105,9.60989 0,5.30648 3.74954,9.60992 8.37105,9.60992 4.62155,0 8.37108,-4.30193 8.37108,-9.60992 v -52.85448 a 2.7903569,4.8049536 0 0 0 -3.6292,-4.57823 z"
           id="path12"
           style="fill:#ffffff;stroke-width:0.114426" />
      </g>
    </g>
    <g
       aria-label="EASY  MENU"
       transform="matrix(1.192968,0,0,0.75363478,-50.533138,-246.72278)"
       id="text2168"
       style="font-size:40px;line-height:1.25;white-space:pre;shape-inside:url(#rect2170);fill:#ffffff">
      <g
         id="g855"
         transform="matrix(0.22178578,0,0,0.35107633,64.84411,495.09255)" />
    </g>
    <g
       id="g2425"
       transform="matrix(0.5756229,0,0,0.5756229,37.513415,111.00877)"
       style="isolation:isolate">
      <path
         style="color:#000000;fill:url(#linearGradient1238);stroke:#000000;stroke-width:0.2;stroke-opacity:1;-inkscape-stroke:none"
         d="m 32.85892,2.4082545 4.59,10.4999995 v 36.5 l -4.52,13 17.090004,-4.87 a 6.12,6.12 0 0 0 4.43,-5.87 v -38.52 a 6.11,6.11 0 0 0 -4.44,-5.8799995 z"
         id="path1496" />
      <path
         style="color:#000000;fill:url(#linearGradient1240);stroke:#000000;stroke-width:0.2;stroke-opacity:1;-inkscape-stroke:none"
         d="m 11.18892,49.018254 5,-2.7 a 4.36,4.36 0 0 0 2.26,-3.83 v -19.65 a 4.37,4.37 0 0 1 2.87,-4.1 l 16.13,-5.83 V 8.4782545 a 6.32,6.32 0 0 0 -4.59,-6.07 6.18,6.18 0 0 0 -1.73,-0.24 v 0 a 6.41,6.41 0 0 0 -3.14,0.83 L 9.5289202,13.528254 a 6.1,6.1 0 0 0 -3.080001,5.3 v 27.36 a 3.21,3.21 0 0 0 4.7400008,2.83 z"
         id="path1490" />
      <path
         style="color:#000000;fill:url(#linearGradient1242);stroke:#000000;stroke-width:0.2;stroke-opacity:1;-inkscape-stroke:none"
         d="m 37.44892,49.408254 h -19.07 a 3.22,3.22 0 0 0 -1.59,6 l 11.36,6.44 a 6.2,6.2 0 0 0 3.07,0.81 v 0 a 6,6 0 0 0 1.71,-0.25 6.22,6.22 0 0 0 4.52,-6 z"
         id="path1528" />
    </g>
  </g>
</svg>
